<?xml version="1.0" encoding="UTF-8"?>
<svg id="plasmid-svg" width="648.7060546875" height="648.7060546875" viewBox="125.64697265625 125.64697265625 648.7060546875 648.7060546875" role="img" aria-label="Plasmid map" xmlns="http://www.w3.org/2000/svg"><circle cx="450" cy="450" r="210" fill="none" stroke="#e2e8f0" stroke-width="28" opacity="0.4" pointer-events="none"/><circle cx="450" cy="450" r="196" fill="none" stroke="#cbd5e1" stroke-width="1" opacity="0.4" pointer-events="none"/><circle cx="450" cy="450" r="224" fill="none" stroke="#cbd5e1" stroke-width="1" opacity="0.4" pointer-events="none"/><circle cx="450" cy="450" r="144" fill="none" stroke="#e2e8f0" stroke-width="24" opacity="0.4" pointer-events="none"/><circle cx="450" cy="450" r="132" fill="none" stroke="#cbd5e1" stroke-width="1" opacity="0.4" pointer-events="none"/><circle cx="450" cy="450" r="156" fill="none" stroke="#cbd5e1" stroke-width="1" opacity="0.4" pointer-events="none"/><circle cx="450" cy="450" r="176" fill="none" stroke="#e2e8f0" stroke-width="24" opacity="0.4" pointer-events="none"/><circle cx="450" cy="450" r="164" fill="none" stroke="#cbd5e1" stroke-width="1" opacity="0.4" pointer-events="none"/><circle cx="450" cy="450" r="188" fill="none" stroke="#cbd5e1" stroke-width="1" opacity="0.4" pointer-events="none"/><circle cx="450" cy="450" r="244" fill="none" stroke="#e2e8f0" stroke-width="24" opacity="0.4" pointer-events="none"/><circle cx="450" cy="450" r="232" fill="none" stroke="#cbd5e1" stroke-width="1" opacity="0.4" pointer-events="none"/><circle cx="450" cy="450" r="256" fill="none" stroke="#cbd5e1" stroke-width="1" opacity="0.4" pointer-events="none"/><line x1="450" y1="320" x2="450" y2="325" stroke="#ef4444" stroke-width="1.5"/><text x="450" y="337" text-anchor="middle" dominant-baseline="central" fill="#64748b" font-size="10" font-family="sans-serif">0</text><line x1="557.7590962807105" y1="377.2815211327646" x2="553.6145156545294" y2="380.0783857045814" stroke="#ef4444" stroke-width="1.5"/><text x="543.6675221516946" y="386.7908606769416" text-anchor="middle" dominant-baseline="central" fill="#64748b" font-size="10" font-family="sans-serif">500</text><line x1="570.5550394714035" y1="498.6465050959299" x2="565.9183071840419" y2="496.7754856691634" stroke="#ef4444" stroke-width="1.5"/><text x="554.7901496943739" y="492.28503904492374" text-anchor="middle" dominant-baseline="central" fill="#64748b" font-size="10" font-family="sans-serif">1k</text><line x1="477.11135125990455" y1="577.141553525439" x2="476.0686069806775" y2="572.2514937744606" stroke="#ef4444" stroke-width="1.5"/><text x="473.5660207105324" y="560.5153503721124" text-anchor="middle" dominant-baseline="central" fill="#64748b" font-size="10" font-family="sans-serif">1.5k</text><line x1="359.775671661759" y1="543.5925775684872" x2="363.2458381363067" y2="539.9928630466222" stroke="#ef4444" stroke-width="1.5"/><text x="371.5742376752213" y="531.3535481941465" text-anchor="middle" dominant-baseline="central" fill="#64748b" font-size="10" font-family="sans-serif">2k</text><line x1="321.9505577620203" y1="427.5647522290859" x2="326.8755363096349" y2="428.4276463741211" stroke="#ef4444" stroke-width="1.5"/><text x="338.69548482390996" y="430.4985923222054" text-anchor="middle" dominant-baseline="central" fill="#64748b" font-size="10" font-family="sans-serif">2.5k</text><line x1="396.9695489637209" y1="331.30808257135277" x2="399.0091816958855" y2="335.87315631860844" stroke="#ef4444" stroke-width="1.5"/><text x="403.9043002530805" y="346.8293333120221" text-anchor="middle" dominant-baseline="central" fill="#64748b" font-size="10" font-family="sans-serif">3k</text><line x1="475.2449273040959" y1="322.4747333058624" x2="474.4681603101237" y2="326.39858766568204" stroke="#cbd5e1" stroke-width="1"/><line x1="499.52870903275294" y1="329.80471314752435" x2="498.00474875482206" y2="333.5030296660621" stroke="#cbd5e1" stroke-width="1"/><line x1="521.9267931331066" y1="341.71086652120954" x2="519.7136610367032" y2="345.0428398590185" stroke="#cbd5e1" stroke-width="1"/><line x1="541.5864213788391" y1="357.7398925915554" x2="538.7683776441055" y2="360.5786651271998" stroke="#cbd5e1" stroke-width="1"/><line x1="569.829078496805" y1="399.5917472371185" x2="566.1420299276725" y2="401.14277039905335" stroke="#cbd5e1" stroke-width="1"/><line x1="577.3368297657172" y1="423.8211576799745" x2="573.4187734652336" y2="424.62666052059063" stroke="#cbd5e1" stroke-width="1"/><line x1="579.996508824104" y1="449.0472704766502" x2="575.9966162449008" y2="449.07658523121484" stroke="#cbd5e1" stroke-width="1"/><line x1="577.7068541896776" y1="474.3096563730631" x2="573.7774125223029" y2="473.5616669461996" stroke="#cbd5e1" stroke-width="1"/><line x1="558.8133544243688" y1="521.1312441822629" x2="555.4652512113113" y2="518.9425905151163" stroke="#cbd5e1" stroke-width="1"/><line x1="542.9288381109247" y1="540.9078162060531" x2="540.0694892459733" y2="538.1106526304823" stroke="#cbd5e1" stroke-width="1"/><line x1="523.5062588628931" y1="557.2232712986381" x2="521.244527820958" y2="553.9240937202185" stroke="#cbd5e1" stroke-width="1"/><line x1="501.28508904567144" y1="569.4564340735883" x2="499.70708630580464" y2="565.7808514867087" stroke="#cbd5e1" stroke-width="1"/><line x1="451.90540787521735" y1="579.9860354839283" x2="451.8467799405953" y2="575.9864651613459" stroke="#cbd5e1" stroke-width="1"/><line x1="426.62692023929856" y1="577.8815824992007" x2="427.34609192424324" y2="573.9467645761484" stroke="#cbd5e1" stroke-width="1"/><line x1="402.2383116640625" y1="570.9083170311322" x2="403.70790207439904" y2="567.1880611224819" stroke="#cbd5e1" stroke-width="1"/><line x1="379.66812525604456" y1="559.3317309613296" x2="381.83218294047396" y2="555.967677700981" stroke="#cbd5e1" stroke-width="1"/><line x1="343.31831268805365" y1="524.2900908081024" x2="346.6008261438058" y2="522.0042418601608" stroke="#cbd5e1" stroke-width="1"/><line x1="330.922626402294" y1="502.15917078589683" x2="334.5865455899157" y2="500.55427322325386" stroke="#cbd5e1" stroke-width="1"/><line x1="323.06055153833233" y1="478.04240403830624" x2="326.96638072176825" y2="477.1795608371276" stroke="#cbd5e1" stroke-width="1"/><line x1="320.0314194579998" y1="452.85798388686874" x2="324.03045270544595" y2="452.77004592111894" stroke="#cbd5e1" stroke-width="1"/><line x1="328.7448994430168" y1="403.1256937233639" x2="332.4758256140009" y2="404.5679800703373" stroke="#cbd5e1" stroke-width="1"/><line x1="340.15576475253727" y1="380.47127224736477" x2="343.5355873755361" y2="382.61061771667664" stroke="#cbd5e1" stroke-width="1"/><line x1="355.7487098685791" y1="360.4640055141915" x2="358.64874956493054" y2="363.21895919067794" stroke="#cbd5e1" stroke-width="1"/><line x1="374.9300673970629" y1="343.86562659067295" x2="377.2399114771532" y2="347.1312996186522" stroke="#cbd5e1" stroke-width="1"/><line x1="421.02804935198503" y1="323.26947457045327" x2="421.91949398730856" y2="327.1688753529009" stroke="#cbd5e1" stroke-width="1"/><line x1="446.189593604933" y1="320.0558550641683" x2="446.3068368786274" y2="324.0541364468093" stroke="#cbd5e1" stroke-width="1"/><g><path d="M 450.1504837299094 603.9999264761092 A 154 154 0 1 1 450 296 L 450 316 A 134 134 0 1 0 450.1309403883627 583.9999360246665 Z" fill="#dc2626" opacity="1"/></g><defs><path id="label-path-0" d="M 450 331.2 A 118.8 118.8 0 1 0 450.11608744878725 568.79994328157" fill="none"/></defs><text pointer-events="none" font-size="16" font-weight="600" font-family="sans-serif" fill="#000000"><textPath href="#label-path-0" startOffset="50%" text-anchor="middle" dominant-baseline="central">+</textPath></text><defs><mask id="tail-mask-1"><rect width="900" height="900" fill="white"/><polygon points="232.45229537699961,503.3759891080603 230.72202440484423,495.75116849753965 241.06964321516287,471.16851468007746 258.1317713542387,490.03227243534724 259.6457584548747,496.70399046955276" fill="black"/></mask></defs><g mask="url(#tail-mask-1)"><path d="M 232.67986347265813 495.3426759216688 A 222 222 0 1 1 474.2238534071028 670.6744319718784 L 474.2238534071028 670.6744319718784 L 443.6396141507596 659.9036576428548 L 471.60505844417276 646.8177366235673 L 471.60505844417276 646.8177366235673 A 198 198 0 1 0 256.1739322864248 490.4407650112181 Z" fill="#2563eb" opacity="1"/></g><defs><path id="label-path-1" d="M 244.42689787954146 492.8917204664434 A 210 210 0 1 1 443.6396141507596 659.9036576428548" fill="none"/></defs><text pointer-events="none" font-size="11" font-weight="600" font-family="sans-serif" fill="#ffffff"><textPath href="#label-path-1" startOffset="50%" text-anchor="middle" dominant-baseline="central">ORF P (Polymerase Gene)</textPath></text><defs><mask id="tail-mask-2"><rect width="900" height="900" fill="white"/><polygon points="274.73365429762595,263.4049623807324 281.35249471998634,257.40192378212146 309.32670319444094,250.6334442142938 297.1631983399876,275.45799342754754 291.16487420722353,280.8982471575387" fill="black"/></mask></defs><g mask="url(#tail-mask-2)"><path d="M 282.6700533549864 258.9065962525736 A 254 254 0 0 1 703.2167322784359 430.06795308476984 L 703.2167322784359 430.06795308476984 L 693.545092955427 464.8925383105912 L 683.2784069021811 431.6374055977801 L 683.2784069021811 431.6374055977801 A 234 234 0 0 0 295.84563970498755 273.95332095709534 Z" fill="#16a34a" opacity="1"/></g><defs><path id="label-path-2" d="M 289.587236188737 266.8061267224475 A 243.5 243.5 0 0 1 693.0460251419937 464.8620208140531" fill="none"/></defs><text pointer-events="none" font-size="11" font-weight="600" font-family="sans-serif" fill="#ffffff"><textPath href="#label-path-2" startOffset="50%" text-anchor="middle" dominant-baseline="central">ORF preS1/preS2/S</textPath></text><defs><mask id="tail-mask-3"><rect width="900" height="900" fill="white"/><polygon points="539.0076961787352,615.5947765509346 533.1743007369398,618.600224486568 510.9401318527121,615.1129926134647 522.5563048981815,597.0767915733891 527.6450115601732,594.4550178423046" fill="black"/></mask></defs><g mask="url(#tail-mask-3)"><path d="M 532.2894677503766 616.8066050771364 A 186 186 0 0 1 393.108947902586 627.0858780119107 L 393.108947902586 627.0858780119107 L 373.37094075254265 608.4423784183059 L 399.2262653324155 608.0443857525655 L 399.2262653324155 608.0443857525655 A 166 166 0 0 0 523.4411378847446 598.8704109828207 Z" fill="#ea580c" opacity="1"/></g><defs><path id="label-path-3" d="M 373.58863694358655 607.9922580250721 A 175.5 175.5 0 0 0 527.6440945709198 607.3901031776206" fill="none"/></defs><text pointer-events="none" font-size="11" font-weight="600" font-family="sans-serif" fill="#ffffff"><textPath href="#label-path-3" startOffset="50%" text-anchor="middle" dominant-baseline="central">ORF X</textPath></text><defs><mask id="tail-mask-4"><rect width="900" height="900" fill="white"/><polygon points="319.0985194692894,670.0018236171418 311.5003081965185,665.2994086623106 297.26563387275337,640.2845590259708 324.4846543030949,645.115089100219 331.3705332690435,649.3766526530349" fill="black"/></mask></defs><g mask="url(#tail-mask-4)"><path d="M 312.58233703873316 663.6173820321363 A 254 254 0 0 1 196.45686808492488 465.2276150034999 L 196.45686808492488 465.2276150034999 L 206.77336281804537 430.5885867295086 L 216.42089421997017 464.0285902000747 L 216.42089421997017 464.0285902000747 A 234 234 0 0 0 323.4026254608802 646.7971157303933 Z" fill="#db2777" opacity="1"/></g><defs><path id="label-path-4" d="M 207.27177805817232 430.6283642157186 A 243.5 243.5 0 0 0 318.26298846036036 654.7867422237213" fill="none"/></defs><text pointer-events="none" font-size="11" font-weight="600" font-family="sans-serif" fill="#ffffff"><textPath href="#label-path-4" startOffset="50%" text-anchor="middle" dominant-baseline="central">ORF Core</textPath></text><g class="marker-group" style=""><line x1="326.2742021332142" y1="641.5096001307174" x2="299.14135172383135" y2="683.5073194576291" stroke="transparent" stroke-width="10"/><line x1="324.10357410046356" y1="644.8694176768704" x2="301.311979756582" y2="680.1475019114762" stroke="#db2777" stroke-width="1.5" stroke-dasharray="4,3"/><text x="296.4280666828931" y="691.7070913903203" text-anchor="middle" dominant-baseline="central" fill="#db2777" font-size="10" font-weight="600" font-family="sans-serif" pointer-events="none">1901</text></g><g class="marker-group" style=""><line x1="222.72265050210797" y1="431.86146628822934" x2="172.88112648941234" y2="427.883717667227" stroke="transparent" stroke-width="10"/><line x1="218.73532858109232" y1="431.5432463985492" x2="176.86844841042802" y2="428.2019375569072" stroke="#db2777" stroke-width="1.5" stroke-dasharray="4,3"/><text x="163.89697408814277" y="427.4859428051268" text-anchor="end" dominant-baseline="central" fill="#db2777" font-size="10" font-weight="600" font-family="sans-serif" pointer-events="none">2452</text></g><g class="marker-group" style=""><line x1="300.1338344310144" y1="278.1741218045157" x2="267.2684472448334" y2="240.49300816515512" stroke="transparent" stroke-width="10"/><line x1="297.50460345612" y1="275.1596327133668" x2="269.8976782197279" y2="243.50749725630396" stroke="#16a34a" stroke-width="1.5" stroke-dasharray="4,3"/><text x="263.9819085262153" y="232.72489680121905" text-anchor="middle" dominant-baseline="central" fill="#16a34a" font-size="10" font-weight="600" font-family="sans-serif" pointer-events="none">2848</text></g><g class="marker-group" style=""><line x1="677.574922925563" y1="463.9159784213722" x2="727.481704268888" y2="466.96772807518187" stroke="transparent" stroke-width="10"/><line x1="681.5674654330289" y1="464.16011839367695" x2="723.4891617614221" y2="466.7235881028771" stroke="#16a34a" stroke-width="1.5" stroke-dasharray="4,3"/><text x="736.4723824032206" y="467.2729030405628" text-anchor="start" dominant-baseline="central" fill="#16a34a" font-size="10" font-weight="600" font-family="sans-serif" pointer-events="none">835</text></g><text x="450" y="440.4" text-anchor="middle" dominant-baseline="central" fill="#1e293b" font-size="24" font-weight="700" font-family="sans-serif">HBV Genome</text><text x="450" y="465.90000000000003" text-anchor="middle" dominant-baseline="central" fill="#64748b" font-size="18" font-family="sans-serif" class="center-len-text" style="">3215 bp</text></svg>