<?xml version="1.0" encoding="UTF-8"?>
<svg id="plasmid-svg" width="539.1878662109375" height="539.1878662109375" viewBox="180.40606689453125 180.40606689453125 539.1878662109375 539.1878662109375" role="img" aria-label="Plasmid map" class="" style="" xmlns="http://www.w3.org/2000/svg"><circle cx="450" cy="450" r="200" fill="none" stroke="#f2f7ff" stroke-width="28" opacity="1" pointer-events="none"/><circle cx="450" cy="450" r="186" fill="none" stroke="#1e293b" stroke-width="1" opacity="1" pointer-events="none"/><circle cx="450" cy="450" r="214" fill="none" stroke="#1e293b" stroke-width="1" opacity="1" pointer-events="none"/><circle cx="450" cy="450" r="164" fill="none" stroke="#e2e8f0" stroke-width="28" opacity="0" pointer-events="none"/><circle cx="450" cy="450" r="150" fill="none" stroke="#cbd5e1" stroke-width="1" opacity="0" pointer-events="none"/><circle cx="450" cy="450" r="178" fill="none" stroke="#cbd5e1" stroke-width="1" opacity="0" pointer-events="none"/><line x1="450" y1="234" x2="450" y2="228" stroke="#be185d" stroke-width="2"/><text x="450" y="216" text-anchor="middle" dominant-baseline="central" fill="#64748b" font-size="10" font-family="sans-serif">0</text><line x1="642.2552088463764" y1="351.54221883753314" x2="647.5956313143313" y2="348.80728047190905" stroke="#be185d" stroke-width="2"/><text x="658.2764762502411" y="343.3374037406609" text-anchor="middle" dominant-baseline="central" fill="#64748b" font-size="10" font-family="sans-serif">1000</text><line x1="625.2687155550082" y1="576.2413456348498" x2="630.1372909870918" y2="579.7480496802624" stroke="#be185d" stroke-width="2"/><text x="639.8744418512589" y="586.7614577710874" text-anchor="middle" dominant-baseline="central" fill="#64748b" font-size="10" font-family="sans-serif">2000</text><line x1="417.5278359753056" y1="663.5452143307205" x2="416.6258314190641" y2="669.4770258399071" stroke="#be185d" stroke-width="2"/><text x="414.8218223065811" y="681.3406488582805" text-anchor="middle" dominant-baseline="central" fill="#64748b" font-size="10" font-family="sans-serif">3000</text><line x1="245.12816204300023" y1="518.4363208546516" x2="239.4372776553058" y2="520.3373297672808" stroke="#be185d" stroke-width="2"/><text x="228.0555088799169" y="524.1393475925393" text-anchor="middle" dominant-baseline="central" fill="#64748b" font-size="10" font-family="sans-serif">4000</text><line x1="295.701547469855" y1="298.84449217179485" x2="291.4154793440176" y2="294.64572806545584" stroke="#be185d" stroke-width="2"/><text x="282.84334309234293" y="286.24819985277776" text-anchor="middle" dominant-baseline="central" fill="#64748b" font-size="10" font-family="sans-serif">5000</text><line x1="497.03217962344866" y1="239.1826048926046" x2="497.9031459127718" y2="235.27857905728246" stroke="#cbd5e1" stroke-width="1"/><line x1="541.8074221707275" y1="254.48172148270683" x2="543.5075596183335" y2="250.86101262127548" stroke="#cbd5e1" stroke-width="1"/><line x1="582.1770943909745" y1="279.1631898027846" x2="584.6248183611777" y2="275.99954516950277" stroke="#cbd5e1" stroke-width="1"/><line x1="616.2039734993612" y1="312.0426182003164" x2="619.2818248604603" y2="309.4878518706927" stroke="#cbd5e1" stroke-width="1"/><line x1="659.080677656392" y1="395.7665211263016" x2="662.9525420574363" y2="394.76219744345536" stroke="#cbd5e1" stroke-width="1"/><line x1="665.8729747722309" y1="442.593329831309" x2="669.8706224531982" y2="442.45616927262955" stroke="#cbd5e1" stroke-width="1"/><line x1="662.3061576729245" y1="489.77556302755863" x2="666.2377531853862" y2="490.51214752806897" stroke="#cbd5e1" stroke-width="1"/><line x1="648.5513875043055" y1="535.0490830057275" x2="652.2282650506816" y2="536.624066024352" stroke="#cbd5e1" stroke-width="1"/><line x1="593.575409320934" y1="611.3756544164152" x2="596.2342131972475" y2="614.3640924611636" stroke="#cbd5e1" stroke-width="1"/><line x1="554.9923380979304" y1="638.766016382001" x2="556.9366406552995" y2="642.2616833520381" stroke="#cbd5e1" stroke-width="1"/><line x1="511.37099090166436" y1="657.0980479766718" x2="512.5074907331766" y2="660.9331970132768" stroke="#cbd5e1" stroke-width="1"/><line x1="464.80462891177837" y1="665.4920484908539" x2="465.0787887064409" y2="669.4826419814253" stroke="#cbd5e1" stroke-width="1"/><line x1="371.8092874476092" y1="651.350968387414" x2="370.3613112892316" y2="655.0796900242179" stroke="#cbd5e1" stroke-width="1"/><line x1="329.84288308130385" y1="629.494476945077" x2="327.6177512865132" y2="632.8184487403562" stroke="#cbd5e1" stroke-width="1"/><line x1="293.6424681781848" y1="599.0245692581932" x2="290.74695832963266" y2="601.7842835037154" stroke="#cbd5e1" stroke-width="1"/><line x1="264.94519502891126" y1="561.4034072957928" x2="261.5182541961133" y2="563.466433356826" stroke="#cbd5e1" stroke-width="1"/><line x1="235.14233081405993" y1="472.1851750496845" x2="231.16348508839437" y2="472.5960116246787" stroke="#cbd5e1" stroke-width="1"/><line x1="235.4668922474963" y1="424.869427422905" x2="231.49405691874622" y2="424.4040464492551" stroke="#cbd5e1" stroke-width="1"/><line x1="246.08627158707887" y1="378.75962265160695" x2="242.31009143128404" y2="377.4403564044145" stroke="#cbd5e1" stroke-width="1"/><line x1="266.49087580205077" y1="336.06843573398265" x2="263.09255868727394" y2="333.9585919512786" stroke="#cbd5e1" stroke-width="1"/><line x1="332.3165516839929" y1="268.8740604097423" x2="330.1372285670298" y2="265.51987634325604" stroke="#cbd5e1" stroke-width="1"/><line x1="374.5788412224005" y1="247.59533402452374" x2="373.1821530968894" y2="243.84709946942232" stroke="#cbd5e1" stroke-width="1"/><line x1="420.46037211716623" y1="236.02941701125428" x2="419.9133419711878" y2="232.066998807759" stroke="#cbd5e1" stroke-width="1"/><defs><mask id="tail-mask-0"><rect width="900" height="900" fill="white"/><polygon points="255.7520419402555,539.7982783221356 251.68997082863666,534.9544602113201 263.9036400904779,523.2676246948515 280.7012668652456,522.7649927210921 281.16766262096974,528.0489708781179" fill="black"/></mask></defs><g mask="url(#tail-mask-0)"><path d="M 254.58004233597208 532.189051257388 A 212 212 0 0 1 248.21486078402793 515.0135185295395 L 248.21486078402793 515.0135185295395 L 257.9489194876986 505.8245687314962 L 271.058461449987 507.65349756393124 L 271.058461449987 507.65349756393124 A 188 188 0 0 0 276.7030564111451 522.8846303603251 Z" fill="#d97706" opacity="1"/></g><path d="M 254.58004233597208 532.189051257388 L 263.9036400904779 523.2676246948515 L 276.7030564111451 522.8846303603251 A 188 188 0 0 1 271.058461449987 507.65349756393124 L 271.058461449987 507.65349756393124 L 257.9489194876986 505.8245687314962 L 248.21486078402793 515.0135185295395 L 248.21486078402793 515.0135185295395 A 212 212 0 0 0 254.58004233597208 532.189051257388 Z" fill="none" stroke="#000000" stroke-width="0.5" stroke-linejoin="round" opacity="1" pointer-events="none"/><g><path d="M 422.9677483700497 660.2694874959633 A 212 212 0 0 1 390.8818150079062 653.5903735524855 L 397.5744397239923 630.542406735223 A 188 188 0 0 0 426.02800327155353 636.4653945718919 Z" fill="#475569" opacity="1" stroke="#000000" stroke-width="0.5" stroke-linejoin="round"/></g><defs><path id="label-path-1" d="M 346.39853972013844 591.7818656524179 A 175.6 175.6 0 0 0 488.4198353563419 621.3454879802546" fill="none"/></defs><text pointer-events="none" font-size="12" font-weight="600" font-family="sans-serif" fill="#1e293b"><textPath href="#label-path-1" startOffset="50%" text-anchor="middle" dominant-baseline="central">AAV2 ITR</textPath></text><g><path d="M 620.7218232077907 324.30966990015565 A 212 212 0 0 1 639.3271693913915 354.6101528974737 L 639.3271693913915 354.6101528974737 L 633.3651815249261 370.14256324968284 L 617.8939049319887 365.40900351285404 L 617.8939049319887 365.40900351285404 A 188 188 0 0 0 601.3948243540787 338.538763873723 Z" fill="#e7c6ff" opacity="1" stroke="#000000" stroke-width="0.5" stroke-linejoin="round"/></g><text text-anchor="end" fill="#1e293b" font-size="12" font-weight="600" font-family="sans-serif" pointer-events="none"><tspan x="606.8333022782627" y="363.3633992643866">CMV</tspan><tspan x="606.8333022782627" y="378.3633992643866">promoter</tspan></text><g><path d="M 555.1761545861967 265.9294252020154 A 212 212 0 0 1 620.7218232077907 324.30966990015565 L 601.3948243540787 338.538763873723 A 188 188 0 0 0 543.2694201047404 286.7676034810325 Z" fill="#ffd6ff" opacity="1" stroke="#000000" stroke-width="0.5" stroke-linejoin="round"/></g><text text-anchor="end" fill="#1e293b" font-size="12" font-weight="600" font-family="sans-serif" pointer-events="none"><tspan x="570.3850629774929" y="318.55921940183583">CMV</tspan><tspan x="570.3850629774929" y="333.55921940183583">enhancer</tspan></text><defs><mask id="tail-mask-4"><rect width="900" height="900" fill="white"/><polygon points="380.8745878402169,652.5282138215318 376.91755478752106,651.35489730814 360.5097937083626,628.8616867243518 387.0618613391193,625.1388526668073 389.9190342910297,626.0291951906772" fill="black"/></mask></defs><g mask="url(#tail-mask-4)"><path d="M 374.5602601025802 648.1233091895288 A 212 212 0 0 1 307.1815808314771 606.6745006253541 L 307.1815808314771 606.6745006253541 L 297.87426776381295 579.8374429492661 L 323.34970375621555 588.9377647055027 L 323.34970375621555 588.9377647055027 A 188 188 0 0 0 383.1006080154956 625.6942553190161 Z" fill="#c8b6ff" opacity="1"/></g><path d="M 374.5602601025802 648.1233091895288 L 360.5097937083626 628.8616867243518 L 383.1006080154956 625.6942553190161 A 188 188 0 0 1 323.34970375621555 588.9377647055027 L 323.34970375621555 588.9377647055027 L 297.87426776381295 579.8374429492661 L 307.1815808314771 606.6745006253541 L 307.1815808314771 606.6745006253541 A 212 212 0 0 0 374.5602601025802 648.1233091895288 Z" fill="none" stroke="#000000" stroke-width="0.5" stroke-linejoin="round" opacity="1" pointer-events="none"/><defs><path id="label-path-4" d="M 283.4728036951517 560.7641317884382 A 200 200 0 0 0 401.63394947388235 644.0637141675513" fill="none"/></defs><text pointer-events="none" font-size="12" font-weight="600" font-family="sans-serif" fill="#ffffff"><textPath href="#label-path-4" startOffset="50%" text-anchor="middle" dominant-baseline="central">f1 ori</textPath></text><g><path d="M 540.0019674069698 641.9469871159085 A 212 212 0 0 1 431.9898155978567 661.2335987900618 L 434.02870439809936 637.3203611911869 A 188 188 0 0 0 529.8130654363695 620.2171395178812 Z" fill="#475569" opacity="1" stroke="#000000" stroke-width="0.5" stroke-linejoin="round"/></g><defs><path id="label-path-5" d="M 380.46280880233985 637.52220945888 A 200 200 0 0 0 580.1386170554019 601.8681676682361" fill="none"/></defs><text pointer-events="none" font-size="10" font-weight="600" font-family="sans-serif" fill="#ffffff"><textPath href="#label-path-5" startOffset="50%" text-anchor="middle" dominant-baseline="central">hGH poly(A) signal</textPath></text><defs><mask id="tail-mask-6"><rect width="900" height="900" fill="white"/><polygon points="303.0272777265531,294.4525188004246 305.9200662795608,291.56606422674736 334.2108705249113,286.92677259770335 324.2929231099811,312.66035205417666 322.25735353803213,314.8045256863504" fill="black"/></mask></defs><g mask="url(#tail-mask-6)"><path d="M 309.86734452878966 290.9187664412076 A 212 212 0 0 1 404.69706648823967 242.8970202647267 L 404.69706648823967 242.8970202647267 L 434.8689768215179 250.57319102594997 L 409.8257004707031 266.34264061211616 L 409.8257004707031 266.34264061211616 A 188 188 0 0 0 325.7314187330776 308.92796269314636 Z" fill="#bbd0ff" opacity="1"/></g><path d="M 309.86734452878966 290.9187664412076 L 334.2108705249113 286.92677259770335 L 325.7314187330776 308.92796269314636 A 188 188 0 0 1 409.8257004707031 266.34264061211616 L 409.8257004707031 266.34264061211616 L 434.8689768215179 250.57319102594997 L 404.69706648823967 242.8970202647267 L 404.69706648823967 242.8970202647267 A 212 212 0 0 0 309.86734452878966 290.9187664412076 Z" fill="none" stroke="#000000" stroke-width="0.5" stroke-linejoin="round" opacity="1" pointer-events="none"/><defs><path id="label-path-6" d="M 317.7993816309336 299.923364567177 A 200 200 0 0 1 434.8689768215179 250.57319102594997" fill="none"/></defs><text pointer-events="none" font-size="12" font-weight="600" font-family="sans-serif" fill="#ffffff"><textPath href="#label-path-6" startOffset="50%" text-anchor="middle" dominant-baseline="central">ori</textPath></text><defs><mask id="tail-mask-7"><rect width="900" height="900" fill="white"/><polygon points="654.190840373561,514.0476440436256 653.074445331011,517.9787390217817 630.6448223558006,535.8338403896812 626.7438807047974,508.5324586150638 627.4742818200109,505.6675784678241" fill="black"/></mask></defs><g mask="url(#tail-mask-7)"><path d="M 649.9449491830533 520.4699744301519 A 212 212 0 0 1 571.0496479869705 624.0430484743085 L 571.0496479869705 624.0430484743085 L 540.2353682803696 628.4869135575661 L 557.3459142525966 604.3400618545754 L 557.3459142525966 604.3400618545754 A 188 188 0 0 0 627.3096719170472 512.492241475795 Z" fill="#059669" opacity="1"/></g><path d="M 649.9449491830533 520.4699744301519 L 630.6448223558006 535.8338403896812 L 627.3096719170472 512.492241475795 A 188 188 0 0 1 557.3459142525966 604.3400618545754 L 557.3459142525966 604.3400618545754 L 540.2353682803696 628.4869135575661 L 571.0496479869705 624.0430484743085 L 571.0496479869705 624.0430484743085 A 212 212 0 0 0 649.9449491830533 520.4699744301519 Z" fill="none" stroke="#000000" stroke-width="0.5" stroke-linejoin="round" opacity="1" pointer-events="none"/><defs><path id="label-path-7" d="M 535.9496709219155 630.5897396543182 A 200 200 0 0 0 640.1602990404754 511.9601538800298" fill="none"/></defs><text pointer-events="none" font-size="12" font-weight="600" font-family="sans-serif" fill="#ffffff"><textPath href="#label-path-7" startOffset="50%" text-anchor="middle" dominant-baseline="central">TurboGFP</textPath></text><defs><mask id="tail-mask-8"><rect width="900" height="900" fill="white"/><polygon points="246.71515245111203,516.8675613210576 245.332989188334,513.0218532804828 253.16573901929837,485.4439515881207 272.2382554250829,505.3643409045729 273.31316988741514,508.11853460615276" fill="black"/></mask></defs><g mask="url(#tail-mask-8)"><path d="M 246.42585465696055 509.17404285538595 A 212 212 0 0 1 266.27993961152686 344.21276347849994 L 266.27993961152686 344.21276347849994 L 292.25530977237264 327.0503651693512 L 287.07843701399554 356.1886770469717 L 287.07843701399554 356.1886770469717 A 188 188 0 0 0 269.47198431843674 502.4750946076064 Z" fill="#b8c0ff" opacity="1"/></g><path d="M 246.42585465696055 509.17404285538595 L 253.16573901929837 485.4439515881207 L 269.47198431843674 502.4750946076064 A 188 188 0 0 1 287.07843701399554 356.1886770469717 L 287.07843701399554 356.1886770469717 L 292.25530977237264 327.0503651693512 L 266.27993961152686 344.21276347849994 L 266.27993961152686 344.21276347849994 A 212 212 0 0 0 246.42585465696055 509.17404285538595 Z" fill="none" stroke="#000000" stroke-width="0.5" stroke-linejoin="round" opacity="1" pointer-events="none"/><defs><path id="label-path-8" d="M 257.9489194876986 505.8245687314962 A 200 200 0 0 1 292.25530977237264 327.0503651693512" fill="none"/></defs><text pointer-events="none" font-size="12" font-weight="600" font-family="sans-serif" fill="#ffffff"><textPath href="#label-path-8" startOffset="50%" text-anchor="middle" dominant-baseline="central">AmpR</textPath></text><g><path d="M 620.601961279071 406.7452799369323 A 176 176 0 0 1 623.5326173786447 479.36717054326 L 599.8690786451931 475.36255637826997 A 152 152 0 0 0 597.3380574682886 412.6436508546234 Z" fill="#475569" opacity="1" stroke="#000000" stroke-width="0.5" stroke-linejoin="round"/></g><text text-anchor="end" fill="#1e293b" font-size="12" font-weight="600" font-family="sans-serif" pointer-events="none"><tspan x="594.8820758993154" y="441.2732844172991">chimeric</tspan><tspan x="594.8820758993154" y="456.2732844172991">intron</tspan></text><g><path d="M 619.8920439871634 495.96404453334935 A 176 176 0 0 1 615.9920332840442 508.50337499861666 L 593.3567560180381 500.5256420442598 A 152 152 0 0 0 596.724947079823 489.6962202788017 Z" fill="#475569" opacity="1" stroke="#000000" stroke-width="0.5" stroke-linejoin="round"/></g><text x="588.4577223017088" y="491.0834315286519" text-anchor="end" fill="#1e293b" font-size="12" font-weight="600" font-family="sans-serif" pointer-events="none">MCS</text><g class="marker-group" style=""><line x1="624.2561855977299" y1="502.52410666474526" x2="662.5542483664617" y2="514.0678663712827" stroke="transparent" stroke-width="10"/><line x1="626.1710887361664" y1="503.10129465007213" x2="656.8095389511519" y2="512.336302415302" stroke="#dc2626" stroke-width="1.5" opacity="0.5"/><line x1="628.085991874603" y1="503.678482635399" x2="658.7244420895885" y2="512.9134904006289" stroke="#dc2626" stroke-width="1.5"/><line x1="658.7244420895885" y1="512.9134904006289" x2="662.6125446568874" y2="510.3067645834448" stroke="#dc2626" stroke-width="0.75" opacity="0.5" pointer-events="none"/><text x="672.3848309371649" y="511.94405230969215" text-anchor="start" dominant-baseline="central" fill="#1e293b" font-size="10" font-weight="600" font-family="sans-serif" pointer-events="none">HindIII</text></g><g class="marker-group" style=""><line x1="621.9147830005679" y1="509.74368071911556" x2="659.6982517919016" y2="522.874159998042" stroke="transparent" stroke-width="10"/><line x1="623.8039564401347" y1="510.4002046830619" x2="654.0307314732015" y2="520.904588106203" stroke="#dc2626" stroke-width="1.5" opacity="0.5"/><line x1="625.6931298797014" y1="511.05672864700824" x2="655.9199049127683" y2="521.5611120701494" stroke="#dc2626" stroke-width="1.5"/><line x1="655.9199049127683" y1="521.5611120701494" x2="650.4204188757203" y2="543.127094326414" stroke="#dc2626" stroke-width="0.75" opacity="0.5" pointer-events="none"/><text x="659.8616972162376" y="545.655431728941" text-anchor="start" dominant-baseline="central" fill="#1e293b" font-size="10" font-weight="600" font-family="sans-serif" pointer-events="none">XhoI</text></g><g class="marker-group" style=""><line x1="622.8749734706716" y1="506.9055669290324" x2="660.8694731345555" y2="519.4122849354131" stroke="transparent" stroke-width="10"/><line x1="624.7746984538658" y1="507.5309028293514" x2="655.1702981849729" y2="517.5362772344561" stroke="#dc2626" stroke-width="1.5" opacity="0.5"/><line x1="626.67442343706" y1="508.15623872967046" x2="657.0700231681672" y2="518.161613134775" stroke="#dc2626" stroke-width="1.5"/><line x1="657.0700231681672" y1="518.161613134775" x2="659.1289982366881" y2="521.4567148455576" stroke="#dc2626" stroke-width="0.75" opacity="0.5" pointer-events="none"/><text x="668.8067085960552" y="523.3967161535818" text-anchor="start" dominant-baseline="central" fill="#1e293b" font-size="10" font-weight="600" font-family="sans-serif" pointer-events="none">MluI</text></g><g class="marker-group" style=""><line x1="625.0426173987939" y1="499.8405667521894" x2="663.5135223216058" y2="510.7945374669562" stroke="transparent" stroke-width="10"/><line x1="626.9661626449345" y1="500.3882652879277" x2="657.742886583184" y2="509.1514418597412" stroke="#dc2626" stroke-width="1.5" opacity="0.5"/><line x1="628.8897078910751" y1="500.93596382366604" x2="659.6664318293247" y2="509.69914039547956" stroke="#dc2626" stroke-width="1.5"/><line x1="659.6664318293247" y1="509.69914039547956" x2="665.5020745575301" y2="498.98832372515665" stroke="#dc2626" stroke-width="0.75" opacity="0.5" pointer-events="none"/><text x="675.3528096133906" y="500.31832346430116" text-anchor="start" dominant-baseline="central" fill="#1e293b" font-size="10" font-weight="600" font-family="sans-serif" pointer-events="none">AscI</text></g><g class="marker-group" style=""><line x1="625.2597299921599" y1="499.0716521331328" x2="663.7783519684588" y2="509.8566306239312" stroke="transparent" stroke-width="10"/><line x1="627.1856610909749" y1="499.61090105767266" x2="658.000558672014" y2="508.2388838503114" stroke="#dc2626" stroke-width="1.5" opacity="0.5"/><line x1="629.1115921897898" y1="500.1501499822126" x2="659.926489770829" y2="508.7781327748513" stroke="#dc2626" stroke-width="1.5"/><line x1="659.926489770829" y1="508.7781327748513" x2="667.7895149037086" y2="487.53301477375993" stroke="#dc2626" stroke-width="0.75" opacity="0.5" pointer-events="none"/><text x="677.7023524124065" y="488.5520106499706" text-anchor="start" dominant-baseline="central" fill="#1e293b" font-size="10" font-weight="600" font-family="sans-serif" pointer-events="none">SgrAI</text></g><g class="marker-group" style=""><line x1="622.6866752665269" y1="507.4744481086431" x2="660.6397907097196" y2="520.1061949457076" stroke="transparent" stroke-width="10"/><line x1="624.5843310386865" y1="508.10603545049634" x2="654.9468233932406" y2="518.2114329201479" stroke="#dc2626" stroke-width="1.5" opacity="0.5"/><line x1="626.4819868108461" y1="508.7376227923496" x2="656.8444791654002" y2="518.8430202620011" stroke="#dc2626" stroke-width="1.5"/><line x1="656.8444791654002" y1="518.8430202620011" x2="655.0611679499301" y2="532.4070227529825" stroke="#dc2626" stroke-width="0.75" opacity="0.5" pointer-events="none"/><text x="664.6284394779825" y="534.6443174883575" text-anchor="start" dominant-baseline="central" fill="#1e293b" font-size="10" font-weight="600" font-family="sans-serif" pointer-events="none">BsiWI</text></g><text x="450" y="440.4" text-anchor="middle" dominant-baseline="central" fill="#9e74d0" font-size="24" font-weight="700" font-family="sans-serif">pAAV-AC-GFP</text><text x="450" y="465.20000000000005" text-anchor="middle" dominant-baseline="central" fill="#64748b" font-size="16" font-family="sans-serif" class="center-len-text" style="">5725 bp</text></svg>