<?xml version="1.0" encoding="UTF-8"?>
<svg id="plasmid-svg" width="540.1156311035156" height="540.1156311035156" viewBox="179.9421844482422 179.9421844482422 540.1156311035156 540.1156311035156" role="img" aria-label="Plasmid map" xmlns="http://www.w3.org/2000/svg"><circle cx="450" cy="450" r="210" fill="none" stroke="#e2e8f0" stroke-width="32" opacity="1" pointer-events="none"/><circle cx="450" cy="450" r="194" fill="none" stroke="#cbd5e1" stroke-width="1" opacity="1" pointer-events="none"/><circle cx="450" cy="450" r="226" fill="none" stroke="#cbd5e1" stroke-width="1" opacity="1" pointer-events="none"/><circle cx="450" cy="450" r="170" fill="none" stroke="#e2e8f0" stroke-width="32" opacity="0.4" pointer-events="none"/><circle cx="450" cy="450" r="154" fill="none" stroke="#cbd5e1" stroke-width="1" opacity="0.4" pointer-events="none"/><circle cx="450" cy="450" r="186" fill="none" stroke="#cbd5e1" stroke-width="1" opacity="0.4" pointer-events="none"/><line x1="450" y1="222" x2="450" y2="217" stroke="#dc2626" stroke-width="2"/><line x1="450" y1="298" x2="450" y2="303" stroke="#dc2626" stroke-width="2"/><text x="450" y="205" text-anchor="middle" dominant-baseline="central" fill="#64748b" font-size="10" font-family="sans-serif">0</text><line x1="589.7653938166071" y1="269.86217862067747" x2="592.8304243827608" y2="265.91178780095544" stroke="#dc2626" stroke-width="2"/><line x1="543.1769292110714" y1="329.9081190804516" x2="540.1118986449178" y2="333.8585099001736" stroke="#dc2626" stroke-width="2"/><line x1="670.8511714591812" y1="393.35408165536205" x2="675.6943989034614" y2="392.11184660394457" stroke="#dc2626" stroke-width="2"/><line x1="597.2341143061208" y1="412.23605443690803" x2="592.3908868618405" y2="413.4782894883256" stroke="#dc2626" stroke-width="2"/><text x="687.3181447697341" y="389.1304824805426" text-anchor="middle" dominant-baseline="central" fill="#64748b" font-size="10" font-family="sans-serif">1000</text><line x1="659.2139822862711" y1="540.6284150579709" x2="663.8020082136015" y2="542.6158803004703" stroke="#dc2626" stroke-width="2"/><line x1="589.4759881908474" y1="510.4189433719806" x2="584.8879622635169" y2="508.43147812948126" stroke="#dc2626" stroke-width="2"/><text x="674.8132704391949" y="547.3857968824688" text-anchor="middle" dominant-baseline="central" fill="#64748b" font-size="10" font-family="sans-serif">1500</text><line x1="559.7396265332843" y1="649.8529818850229" x2="562.1461972905931" y2="654.2357227158348" stroke="#dc2626" stroke-width="2"/><line x1="523.1597510221895" y1="583.2353212566819" x2="520.7531802648807" y2="578.85258042587" stroke="#dc2626" stroke-width="2"/><text x="567.9219671081344" y="664.7543007097834" text-anchor="middle" dominant-baseline="central" fill="#64748b" font-size="10" font-family="sans-serif">2000</text><line x1="414.1917830004513" y1="675.1705389150926" x2="413.40651508379455" y2="680.1084893298972" stroke="#dc2626" stroke-width="2"/><line x1="426.1278553336342" y1="600.1136926100617" x2="426.913123250291" y2="595.175742195257" stroke="#dc2626" stroke-width="2"/><text x="411.52187208381827" y="691.9595703254284" text-anchor="middle" dominant-baseline="central" fill="#64748b" font-size="10" font-family="sans-serif">2500</text><line x1="283.6777927844636" y1="605.9516700357908" x2="280.03037595956147" y2="609.3716627997335" stroke="#dc2626" stroke-width="2"/><line x1="339.11852852297574" y1="553.9677800238605" x2="342.76594534787785" y2="550.5477872599178" stroke="#dc2626" stroke-width="2"/><text x="271.2765755797964" y="617.5796454331962" text-anchor="middle" dominant-baseline="central" fill="#64748b" font-size="10" font-family="sans-serif">3000</text><line x1="222.99312879948755" y1="471.2574793367876" x2="218.0149079398272" y2="471.723652129261" stroke="#dc2626" stroke-width="2"/><line x1="298.662085866325" y1="464.17165289119174" x2="303.6403067259854" y2="463.7054800987183" stroke="#dc2626" stroke-width="2"/><text x="206.06717787664235" y="472.84246683119716" text-anchor="middle" dominant-baseline="central" fill="#64748b" font-size="10" font-family="sans-serif">3500</text><line x1="257.6158632138102" y1="327.63847045319915" x2="253.39691284569201" y2="324.9551035771728" stroke="#dc2626" stroke-width="2"/><line x1="321.7439088092068" y1="368.4256469687994" x2="325.962859177325" y2="371.10901384482577" stroke="#dc2626" stroke-width="2"/><text x="243.27143196220834" y="318.5150230747096" text-anchor="middle" dominant-baseline="central" fill="#64748b" font-size="10" font-family="sans-serif">4000</text><line x1="373.0098600723909" y1="235.39217545968373" x2="371.32147981082056" y2="230.6858635180101" stroke="#dc2626" stroke-width="2"/><line x1="398.6732400482606" y1="306.9281169731225" x2="400.361620309831" y2="311.6344289147961" stroke="#dc2626" stroke-width="2"/><text x="367.26936718305166" y="219.39071485799346" text-anchor="middle" dominant-baseline="central" fill="#64748b" font-size="10" font-family="sans-serif">4500</text><line x1="480.0023411946868" y1="223.98261234401102" x2="480.5286980577515" y2="220.01739501671298" stroke="#cbd5e1" stroke-width="1"/><line x1="470.00156079645785" y1="299.321741562674" x2="469.4752039333932" y2="303.2869588899721" stroke="#cbd5e1" stroke-width="1"/><line x1="509.48290158234016" y1="229.89596909791578" x2="510.5264612592233" y2="226.03449487156345" stroke="#cbd5e1" stroke-width="1"/><line x1="489.6552677215601" y1="303.26397939861056" x2="488.61170804467696" y2="307.1254536249629" stroke="#cbd5e1" stroke-width="1"/><line x1="537.9289748214431" y1="239.6372290854439" x2="539.4715884148018" y2="235.94665415711833" stroke="#cbd5e1" stroke-width="1"/><line x1="508.6193165476287" y1="309.7581527236292" x2="507.0767029542701" y2="313.4487276519548" stroke="#cbd5e1" stroke-width="1"/><line x1="564.8458456844301" y1="253.03697877766987" x2="566.8606850824026" y2="249.58148717727812" stroke="#cbd5e1" stroke-width="1"/><line x1="526.5638971229534" y1="318.69131918511323" x2="524.5490577249809" y2="322.146810785505" stroke="#cbd5e1" stroke-width="1"/><line x1="612.2542349746932" y1="289.8202159048244" x2="615.1008005005649" y2="287.01004425403187" stroke="#cbd5e1" stroke-width="1"/><line x1="558.1694899831288" y1="343.2134772698829" x2="555.3229244572569" y2="346.0236489206755" stroke="#cbd5e1" stroke-width="1"/><line x1="631.9212581579643" y1="312.563993690797" x2="635.1128591782795" y2="310.1528356853724" stroke="#cbd5e1" stroke-width="1"/><line x1="571.2808387719763" y1="358.37599579386466" x2="568.0892377516611" y2="360.7871537992893" stroke="#cbd5e1" stroke-width="1"/><line x1="648.4244275512181" y1="337.69796728922745" x2="651.9055578591342" y2="335.7277561890385" stroke="#cbd5e1" stroke-width="1"/><line x1="582.282951700812" y1="375.1319781928183" x2="578.8018213928959" y2="377.1021892930073" stroke="#cbd5e1" stroke-width="1"/><line x1="661.4767309846791" y1="364.7850233114291" x2="665.1868490721296" y2="363.29002372040156" stroke="#cbd5e1" stroke-width="1"/><line x1="590.9844873231193" y1="393.19001554095274" x2="587.2743692356689" y2="394.68501513198026" stroke="#cbd5e1" stroke-width="1"/><line x1="676.3847149273299" y1="422.90828821813636" x2="680.3563765927216" y2="422.4329950289809" stroke="#cbd5e1" stroke-width="1"/><line x1="600.9231432848866" y1="431.9388588120909" x2="596.9514816194949" y2="432.4141520012464" stroke="#cbd5e1" stroke-width="1"/><line x1="677.9811256734582" y1="452.9336558528327" x2="681.9807945449223" y2="452.9851234993737" stroke="#cbd5e1" stroke-width="1"/><line x1="601.9874171156388" y1="451.9557705685552" x2="597.9877482441746" y2="451.9043029220142" stroke="#cbd5e1" stroke-width="1"/><line x1="675.6126399813257" y1="482.9080032918545" x2="679.5707564722262" y2="483.4853366829397" stroke="#cbd5e1" stroke-width="1"/><line x1="600.4084266542171" y1="471.93866886123635" x2="596.4503101633168" y2="471.3613354701512" stroke="#cbd5e1" stroke-width="1"/><line x1="669.3204489822468" y1="512.3100365769886" x2="673.168176157374" y2="513.403195113427" stroke="#cbd5e1" stroke-width="1"/><line x1="596.2136326548313" y1="491.5400243846591" x2="592.3659054797041" y2="490.4468658482207" stroke="#cbd5e1" stroke-width="1"/><line x1="645.4690048550281" y1="567.3706442897243" x2="648.8982856419584" y2="569.4297784000703" stroke="#cbd5e1" stroke-width="1"/><line x1="580.3126699033521" y1="528.2470961931496" x2="576.8833891164218" y2="526.1879620828036" stroke="#cbd5e1" stroke-width="1"/><line x1="628.3245602141611" y1="592.0716411689048" x2="631.4530612705499" y2="594.5641261016925" stroke="#cbd5e1" stroke-width="1"/><line x1="568.8830401427741" y1="544.7144274459365" x2="565.7545390863853" y2="542.2219425131486" stroke="#cbd5e1" stroke-width="1"/><line x1="608.0788131669702" y1="614.3018223505817" x2="610.8521256786714" y2="617.1843104619954" stroke="#cbd5e1" stroke-width="1"/><line x1="555.3858754446468" y1="559.5345482337211" x2="552.6125629329456" y2="556.6520601223075" stroke="#cbd5e1" stroke-width="1"/><line x1="585.0838643100299" y1="633.6745752766818" x2="587.4537566663462" y2="636.8969362464481" stroke="#cbd5e1" stroke-width="1"/><line x1="540.0559095400199" y1="572.4497168511213" x2="537.6860171837036" y2="569.2273558813549" stroke="#cbd5e1" stroke-width="1"/><line x1="532.4868700004682" y1="662.5556780646564" x2="533.9340080706519" y2="666.2847250482469" stroke="#cbd5e1" stroke-width="1"/><line x1="504.9912466669788" y1="591.7037853764376" x2="503.5441085967951" y2="587.9747383928471" stroke="#cbd5e1" stroke-width="1"/><line x1="503.79955656693494" y1="671.5617469537582" x2="504.7434084365303" y2="675.4487951459294" stroke="#cbd5e1" stroke-width="1"/><line x1="485.8663710446233" y1="597.7078313025054" x2="484.92251917502796" y2="593.8207831103342" stroke="#cbd5e1" stroke-width="1"/><line x1="474.1765969496129" y1="676.7145609790778" x2="474.60074777329027" y2="680.6920094173072" stroke="#cbd5e1" stroke-width="1"/><line x1="466.11773129974193" y1="601.1430406527185" x2="465.6935804760645" y2="597.165592214489" stroke="#cbd5e1" stroke-width="1"/><line x1="444.1331740029181" y1="677.9245058187469" x2="444.0302472310395" y2="681.9231813594266" stroke="#cbd5e1" stroke-width="1"/><line x1="446.08878266861205" y1="601.9496705458312" x2="446.1917094404907" y2="597.9509950051515" stroke="#cbd5e1" stroke-width="1"/><line x1="384.8731447439521" y1="668.5005554328359" x2="383.73056833595126" y2="672.333898510605" stroke="#cbd5e1" stroke-width="1"/><line x1="406.5820964959681" y1="595.6670369552239" x2="407.7246729039689" y2="591.8336938774548" stroke="#cbd5e1" stroke-width="1"/><line x1="356.6871495326923" y1="658.0305552981722" x2="355.0500819806343" y2="661.6802141630524" stroke="#cbd5e1" stroke-width="1"/><line x1="387.7914330217949" y1="588.6870368654481" x2="389.4285005738529" y2="585.037378000568" stroke="#cbd5e1" stroke-width="1"/><line x1="330.1239894897774" y1="643.942625805038" x2="328.0209015860893" y2="647.345128012144" stroke="#cbd5e1" stroke-width="1"/><line x1="370.0826596598516" y1="579.2950838700253" x2="372.1857475635397" y2="575.8925816629194" stroke="#cbd5e1" stroke-width="1"/><line x1="305.64563346605865" y1="626.4817748737373" x2="303.1131007198492" y2="629.5779463627503" stroke="#cbd5e1" stroke-width="1"/><line x1="353.76375564403907" y1="567.6545165824916" x2="356.2962883902486" y2="564.5583450934787" stroke="#cbd5e1" stroke-width="1"/><line x1="264.6025175511902" y1="582.7093572497556" x2="261.34993013980755" y2="585.0375915874706" stroke="#cbd5e1" stroke-width="1"/><line x1="326.40167836746014" y1="538.4729048331703" x2="329.6542657788427" y2="536.1446704954553" stroke="#cbd5e1" stroke-width="1"/><line x1="248.7515522938079" y1="557.1590513948685" x2="245.22087777264662" y2="559.0390347526732" stroke="#cbd5e1" stroke-width="1"/><line x1="315.8343681958719" y1="521.4393675965789" x2="319.3650427170332" y2="519.5593842387742" stroke="#cbd5e1" stroke-width="1"/><line x1="236.40056648059527" y1="529.7451064341217" x2="232.65320799779872" y2="531.1441433891063" stroke="#cbd5e1" stroke-width="1"/><line x1="307.6003776537302" y1="503.1634042894145" x2="311.34773613652675" y2="501.7643673344299" stroke="#cbd5e1" stroke-width="1"/><line x1="227.7643602600961" y1="500.9442875050348" x2="223.86548938746623" y2="501.8380469349477" stroke="#cbd5e1" stroke-width="1"/><line x1="301.8429068400641" y1="483.9628583366899" x2="305.741777712694" y2="483.069098906777" stroke="#cbd5e1" stroke-width="1"/><line x1="222.16985018990925" y1="441.2009751954201" x2="218.1728300178024" y2="441.0466063391994" stroke="#cbd5e1" stroke-width="1"/><line x1="298.1132334599395" y1="444.1339834636134" x2="302.11025363204635" y2="444.2883523198341" stroke="#cbd5e1" stroke-width="1"/><line x1="225.30884234657108" y1="411.2974978539895" x2="221.3668922123004" y2="410.61850658827" stroke="#cbd5e1" stroke-width="1"/><line x1="300.2058948977141" y1="424.1983319026597" x2="304.14784503198473" y2="424.8773231683791" stroke="#cbd5e1" stroke-width="1"/><line x1="232.3555140010733" y1="382.0671087450048" x2="228.53718968530265" y2="380.8753036352681" stroke="#cbd5e1" stroke-width="1"/><line x1="304.90367600071556" y1="404.71140583000323" x2="308.7220003164862" y2="405.90321093974" stroke="#cbd5e1" stroke-width="1"/><line x1="243.18731411651774" y1="354.0181633971297" x2="239.5590213817198" y2="352.3342715269039" stroke="#cbd5e1" stroke-width="1"/><line x1="312.1248760776785" y1="386.0121089314198" x2="315.7531688124764" y2="387.6960008016456" stroke="#cbd5e1" stroke-width="1"/><line x1="275.39022954254284" y1="303.386808026037" x2="272.3269002362716" y2="300.8146467633359" stroke="#cbd5e1" stroke-width="1"/><line x1="333.5934863616952" y1="352.257872017358" x2="336.6568156679664" y2="354.8300332800591" stroke="#cbd5e1" stroke-width="1"/><line x1="296.2012931194677" y1="281.6849449339836" x2="293.5030701917391" y2="278.7320492310711" stroke="#cbd5e1" stroke-width="1"/><line x1="347.4675287463118" y1="337.78996328932243" x2="350.16575167404045" y2="340.742858992235" stroke="#cbd5e1" stroke-width="1"/><line x1="319.6871217380966" y1="262.9103055775162" x2="317.40093089139657" y2="259.6280302367709" stroke="#cbd5e1" stroke-width="1"/><line x1="363.1247478253978" y1="325.27353705167747" x2="365.4109386720978" y2="328.5558123924228" stroke="#cbd5e1" stroke-width="1"/><line x1="345.43926545344175" y1="247.38940602455116" x2="343.60486660174774" y2="243.8348342004205" stroke="#cbd5e1" stroke-width="1"/><line x1="380.29284363562783" y1="314.9262706830341" x2="382.12724248732184" y2="318.48084250716477" stroke="#cbd5e1" stroke-width="1"/><line x1="401.91941611053005" y1="227.1272617549476" x2="401.0758970949253" y2="223.21721371556072" stroke="#cbd5e1" stroke-width="1"/><line x1="417.94627740702003" y1="301.41817450329836" x2="418.78979642262476" y2="305.3282225426853" stroke="#cbd5e1" stroke-width="1"/><line x1="431.66515775504183" y1="222.73840280449383" x2="431.34349385600746" y2="218.7513572396604" stroke="#cbd5e1" stroke-width="1"/><line x1="437.77677183669454" y1="298.4922685363292" x2="438.0984357357289" y2="302.4793141011627" stroke="#cbd5e1" stroke-width="1"/><g><path d="M 259.03370725569505 567.0806347586843 A 224 224 0 0 1 241.92544297219519 367.0483350517737 L 234.1226470836525 363.93764761621514 L 267.6516100298091 345.84115651909735 L 275.7375584892135 380.5279806058604 L 267.93476260067075 377.41729317030195 A 196 196 0 0 0 282.9044938487332 552.4455554138488 Z" fill="#5c5ca4" opacity="1" stroke="#000000" stroke-width="1" stroke-linejoin="round"/></g><defs><path id="label-path-0" d="M 267.6516100298091 345.84115651909735 A 210 210 0 0 0 270.9691005522141 559.7630950862665" fill="none"/></defs><text pointer-events="none" font-size="14" font-weight="600" font-family="sans-serif" fill="#ffffff"><textPath href="#label-path-0" startOffset="50%" text-anchor="middle" dominant-baseline="central">KanR</textPath></text><g><path d="M 585.0915198499997 610.7802265971072 L 573.2832595706831 647.0050707713575 L 568.8272381404174 639.8844055627542 A 224 224 0 0 1 413.3610307235443 670.9832254501661 L 417.9409018831012 643.3603222688953 A 196 196 0 0 0 553.9738333728652 616.1488548674099 L 549.5178119425996 609.0281896588067 Z" fill="#404080" opacity="1" stroke="#000000" stroke-width="1" stroke-linejoin="round"/></g><defs><path id="label-path-1" d="M 415.6509663033228 657.1717738595307 A 210 210 0 0 0 585.0915198499997 610.7802265971072" fill="none"/></defs><text pointer-events="none" font-size="14" font-weight="600" font-family="sans-serif" fill="#ffffff"><textPath href="#label-path-1" startOffset="50%" text-anchor="middle" dominant-baseline="central">CmR</textPath></text><g><path d="M 280.3693800338425 303.70764623570705 A 224 224 0 0 1 400.79987189355955 231.4700309012289 L 398.95486708956804 223.27515706002498 L 432.83641650973186 240.70257669581167 L 408.7948927108562 266.9811508797792 L 406.94988790686466 258.7862770385753 A 196 196 0 0 0 301.5732075296122 321.99419045624364 Z" fill="#8080c0" opacity="1" stroke="#000000" stroke-width="1" stroke-linejoin="round"/></g><defs><path id="label-path-2" d="M 290.97129378172735 312.85091834597534 A 210 210 0 0 1 432.83641650973186 240.70257669581167" fill="none"/></defs><text pointer-events="none" font-size="14" font-weight="600" font-family="sans-serif" fill="#ffffff"><textPath href="#label-path-2" startOffset="50%" text-anchor="middle" dominant-baseline="central">ori</textPath></text><g><path d="M 659.9939537475248 451.59354619715197 L 681.0322243984012 475.1768006213411 L 672.6816620707482 474.26679577960584 A 224 224 0 0 1 655.3078342763952 539.5806518436667 L 629.6443549918458 528.3830703632084 A 196 196 0 0 0 644.8464543119047 471.23344630715513 L 636.4958919842516 470.32344146541993 Z" fill="#202040" opacity="1" stroke="#000000" stroke-width="1" stroke-linejoin="round"/></g><defs><path id="label-path-3" d="M 628.8867675490587 559.9978381417063 A 210 210 0 0 0 658.1650028934038 422.2992496421272" fill="none"/></defs><text pointer-events="none" font-size="14" font-weight="600" font-family="sans-serif" fill="#ffffff"><textPath href="#label-path-3" startOffset="50%" text-anchor="middle" dominant-baseline="central">ccdB</textPath></text><g><path d="M 575.545404582383 315.4847540676308 A 184 184 0 0 1 602.8680386805736 347.5921743715128 L 609.8467969681651 342.9170345058645 L 598.0584145856303 366.46135103803977 L 572.6267527676775 367.85111378932226 L 579.605511055269 363.1759739236739 A 156 156 0 0 0 556.4406691024551 335.9544654051652 Z" fill="#c0c0e1" opacity="1" stroke="#000000" stroke-width="1" stroke-linejoin="round"/></g><defs><path id="label-path-4" d="M 534.2746884963684 302.3592980278132 A 170 170 0 0 1 613.310679745814 402.78112791520556" fill="none"/></defs><text pointer-events="none" font-size="14" font-weight="600" font-family="sans-serif" fill="#ffffff"><textPath href="#label-path-4" startOffset="50%" text-anchor="middle" dominant-baseline="central">attP1</textPath></text><g><path d="M 369.9522248744824 599.9745101590753 L 346.6904856899367 612.3111341005872 L 351.20088028559434 605.2247852105409 A 184 184 0 0 1 318.4622939330343 578.6616954755398 L 338.4789013780073 559.0827418162185 A 156 156 0 0 0 366.2355289377865 581.6036222437194 L 370.74592353344417 574.517273353673 Z" fill="#c0c0e1" opacity="1" stroke="#000000" stroke-width="1" stroke-linejoin="round"/></g><defs><path id="label-path-5" d="M 304.3737598050701 537.7097381519783 A 170 170 0 0 0 406.6192893025274 614.3718769722552" fill="none"/></defs><text pointer-events="none" font-size="14" font-weight="600" font-family="sans-serif" fill="#ffffff"><textPath href="#label-path-5" startOffset="50%" text-anchor="middle" dominant-baseline="central">attP2</textPath></text><g><path d="M 413.3610307235443 670.9832254501661 A 224 224 0 0 1 383.7529249404931 663.979730456088 L 392.03380932293146 637.232264149077 A 196 196 0 0 0 417.9409018831012 643.3603222688953 Z" fill="#404080" opacity="1" stroke="#000000" stroke-width="1" stroke-linejoin="round"/></g><g><path d="M 559.2366922639194 254.44094226234932 A 224 224 0 0 1 580.9214027706101 268.2430570883861 L 564.5562274242839 290.9626749523378 A 196 196 0 0 0 545.5821057309295 278.8858244795557 Z" fill="#be185d" opacity="1" stroke="#000000" stroke-width="1" stroke-linejoin="round"/></g><text x="578.4358513805854" y="248.91040552372323" text-anchor="start" fill="#1e293b" font-size="11" font-weight="600" font-family="sans-serif" pointer-events="none">rrnB T1</text><g><path d="M 527.3065671306557 239.76276571816916 A 224 224 0 0 1 535.0207436332503 242.76227864587696 L 524.3931506790939 268.6669938151423 A 196 196 0 0 0 517.6432462393237 266.04242000339804 Z" fill="#be185d" opacity="1" stroke="#000000" stroke-width="1" stroke-linejoin="round"/></g><text x="538.1143077884534" y="228.48772953077156" text-anchor="start" fill="#1e293b" font-size="11" font-weight="600" font-family="sans-serif" pointer-events="none">rrnB T2</text><g><path d="M 569.569976432699 310.1464310935048 A 184 184 0 0 1 571.9061746322399 312.1780692831005 L 553.3552350142903 333.1509717834983 A 156 156 0 0 0 551.3745452364187 331.42849592710195 Z" fill="#404080" opacity="1"/></g><text x="548.0899750512207" y="348.12726823597535" text-anchor="end" fill="#1e293b" font-size="11" font-weight="600" font-family="sans-serif" pointer-events="none">M13 fwd</text><g><path d="M 311.0180012324888 570.5819390231702 A 184 184 0 0 1 309.00880836386307 568.2264094059449 L 330.4639896997969 550.235434061562 A 156 156 0 0 0 332.16743582754486 552.2325135196443 Z" fill="#404080" opacity="1"/></g><text x="336.9088946147334" y="545.1973800488294" text-anchor="start" fill="#1e293b" font-size="11" font-weight="600" font-family="sans-serif" pointer-events="none">M13 rev</text><g class="marker-group" style=""><line x1="549.1945524223765" y1="562.5186241016321" x2="578.2916211329403" y2="595.5240871714442" stroke="transparent" stroke-width="10"/><line x1="550.517146454675" y1="564.0188724229872" x2="574.3238390360453" y2="591.023342207379" stroke="#be185d" stroke-width="1.5" opacity="0.5"/><line x1="551.8397404869733" y1="565.5191207443423" x2="575.6464330683436" y2="592.5235905287341" stroke="#be185d" stroke-width="1.5"/><text x="530.347587462125" y="536.740085522322" text-anchor="middle" dominant-baseline="central" fill="#1e293b" font-size="11" font-weight="600" font-family="sans-serif" pointer-events="none">BamHI</text></g><text x="450" y="441.2" text-anchor="middle" dominant-baseline="central" fill="#be185d" font-size="22" font-weight="700" font-family="sans-serif">pDONR™221</text><text x="450" y="464.75" text-anchor="middle" dominant-baseline="central" fill="#64748b" font-size="17" font-family="sans-serif" class="center-len-text" style="">4761 bp</text></svg>