<?xml version="1.0" encoding="UTF-8"?>
<svg id="plasmid-svg" width="440" height="440" viewBox="230 230 440 440" role="img" aria-label="Plasmid map" xmlns="http://www.w3.org/2000/svg"><circle cx="450" cy="450" r="160" fill="none" stroke="#ffffff" stroke-width="6" opacity="1" pointer-events="none"/><circle cx="450" cy="450" r="157" fill="none" stroke="#000000" stroke-width="4" opacity="1" pointer-events="none"/><circle cx="450" cy="450" r="163" fill="none" stroke="#000000" stroke-width="4" opacity="1" pointer-events="none"/><circle cx="450" cy="450" r="185" fill="none" stroke="#e2e8f0" stroke-width="28" opacity="0" pointer-events="none"/><circle cx="450" cy="450" r="171" fill="none" stroke="#cbd5e1" stroke-width="1" opacity="0" pointer-events="none"/><circle cx="450" cy="450" r="199" fill="none" stroke="#cbd5e1" stroke-width="1" opacity="0" pointer-events="none"/><g><path d="M 517.8541216102047 303.9971980388474 A 161 161 0 0 1 520.2793694867994 305.1490068223972 L 519.4063338410007 306.9483980419948 A 159 159 0 0 0 517.0112132672208 305.8108974420915 Z" fill="#000000" opacity="1"/></g><defs><path id="label-path-0" d="M 440.61664354380997 299.7928010326533 A 150.5 150.5 0 0 1 571.8564697773495 361.6753105105831" fill="none"/></defs><text pointer-events="none" font-size="11" font-weight="600" font-family="sans-serif" fill="#1e293b"><textPath href="#label-path-0" startOffset="50%" text-anchor="middle" dominant-baseline="central">T7 promoter</textPath></text><g><path d="M 512.7308589295211 301.72377352399167 A 161 161 0 0 1 515.9690600319137 303.13583446427185 L 515.1495686029458 304.96023403614424 A 159 159 0 0 0 511.9515936012041 303.565714225557 Z" fill="#000000" opacity="1"/></g><defs><path id="label-path-1" d="M 436.35872721802724 281.0498130309179 A 169.5 169.5 0 0 1 583.8509217408689 346.0087467662795" fill="none"/></defs><text pointer-events="none" font-size="11" font-weight="600" font-family="sans-serif" fill="#1e293b"><textPath href="#label-path-1" startOffset="50%" text-anchor="middle" dominant-baseline="central">lac operator</textPath></text><defs><mask id="tail-mask-2"><rect width="900" height="900" fill="white"/><polygon points="598.454406097756,324.180886546747 593.290887270909,332.98409669999705 583.8073115598479,336.5946942461429" fill="black"/></mask></defs><g mask="url(#tail-mask-2)"><path d="M 592.978735245509 314.47848411564075 A 197 197 0 0 1 604.7368685314259 328.07583702527126 L 585.8856764260745 342.92954215924834 A 173 173 0 0 0 575.5600060785434 330.98871955332925 Z" fill="#ffffff" opacity="1"/></g><path d="M 592.978735245509 314.47848411564075 A 197 197 0 0 1 604.7368685314259 328.07583702527126 L 585.8856764260745 342.92954215924834 A 173 173 0 0 0 575.5600060785434 330.98871955332925 Z" fill="none" stroke="#000000" stroke-width="1.5" stroke-linejoin="round" opacity="1" pointer-events="none"/><polygon points="598.454406097756,324.180886546747 593.290887270909,332.98409669999705 583.8073115598479,336.5946942461429" fill="none" stroke="#000000" stroke-width="1.5" stroke-linejoin="round" opacity="1" pointer-events="none"/><defs><mask id="tail-mask-3"><rect width="900" height="900" fill="white"/><polygon points="423.3962245080182,642.7729211522517 416.5013957180297,631.9418684941978 426.02105744453434,623.7531879244858" fill="black"/></mask></defs><g mask="url(#tail-mask-3)"><path d="M 454.95616009454966 646.9376461652703 A 197 197 0 0 1 410.952655855767 643.0914418488862 L 415.70969270582583 619.5676113698341 A 173 173 0 0 0 454.35236394089895 622.9452425715317 Z" fill="#ffffff" opacity="1"/></g><path d="M 454.95616009454966 646.9376461652703 A 197 197 0 0 1 410.952655855767 643.0914418488862 L 415.70969270582583 619.5676113698341 A 173 173 0 0 0 454.35236394089895 622.9452425715317 Z" fill="none" stroke="#000000" stroke-width="1.5" stroke-linejoin="round" opacity="1" pointer-events="none"/><polygon points="423.3962245080182,642.7729211522517 416.5013957180297,631.9418684941978 426.02105744453434,623.7531879244858" fill="none" stroke="#000000" stroke-width="1.5" stroke-linejoin="round" opacity="1" pointer-events="none"/><defs><path id="label-path-3" d="M 377.5321657850713 620.2157836518036 A 185 185 0 0 0 491.8385153009163 630.2069328228384" fill="none"/></defs><text pointer-events="none" font-size="11" font-weight="600" font-family="sans-serif" fill="#000000"><textPath href="#label-path-3" startOffset="50%" text-anchor="middle" dominant-baseline="central">rop</textPath></text><defs><mask id="tail-mask-4"><rect width="900" height="900" fill="white"/><polygon points="369.87877640376433,272.6592276732674 356.62588968195973,290.29315755950074 377.7838508798575,290.15636451125954" fill="black"/></mask></defs><g mask="url(#tail-mask-4)"><path d="M 347.6162698938918 281.6950036108268 A 197 197 0 0 1 447.4640926590483 253.01632256971618 L 447.7730356853571 277.01433403330407 A 173 173 0 0 0 360.0894146783923 302.19916560747737 Z" fill="#ffffff" opacity="1"/></g><path d="M 347.6162698938918 281.6950036108268 A 197 197 0 0 1 447.4640926590483 253.01632256971618 L 447.7730356853571 277.01433403330407 A 173 173 0 0 0 360.0894146783923 302.19916560747737 Z" fill="none" stroke="#000000" stroke-width="1.5" stroke-linejoin="round" opacity="1" pointer-events="none"/><polygon points="369.87877640376433,272.6592276732674 356.62588968195973,290.29315755950074 377.7838508798575,290.15636451125954" fill="none" stroke="#000000" stroke-width="1.5" stroke-linejoin="round" opacity="1" pointer-events="none"/><defs><path id="label-path-4" d="M 338.2584286541462 302.5590924025511 A 185 185 0 0 1 466.46752747813923 265.73437504852745" fill="none"/></defs><text pointer-events="none" font-size="11" font-weight="600" font-family="sans-serif" fill="#000000"><textPath href="#label-path-4" startOffset="50%" text-anchor="middle" dominant-baseline="central">f1 ori</textPath></text><defs><mask id="tail-mask-5"><rect width="900" height="900" fill="white"/><polygon points="307.2220999198498,582.2256830146952 328.1486944215898,589.2022245829315 321.3091280880866,569.1797780101621" fill="black"/></mask></defs><g mask="url(#tail-mask-5)"><path d="M 322.85158569138855 600.4735217199548 A 197 197 0 0 1 256.1802950949062 485.2550987873012 L 279.79284797674507 480.9600613715894 A 173 173 0 0 0 338.341747840661 582.1417221195542 Z" fill="#ffffff" opacity="1"/></g><path d="M 322.85158569138855 600.4735217199548 A 197 197 0 0 1 256.1802950949062 485.2550987873012 L 279.79284797674507 480.9600613715894 A 173 173 0 0 0 338.341747840661 582.1417221195542 Z" fill="none" stroke="#000000" stroke-width="1.5" stroke-linejoin="round" opacity="1" pointer-events="none"/><polygon points="307.2220999198498,582.2256830146952 328.1486944215898,589.2022245829315 321.3091280880866,569.1797780101621" fill="none" stroke="#000000" stroke-width="1.5" stroke-linejoin="round" opacity="1" pointer-events="none"/><defs><path id="label-path-5" d="M 267.98657153582565 483.1075800794453 A 185 185 0 0 0 330.5966667660248 591.3076219197544" fill="none"/></defs><text pointer-events="none" font-size="11" font-weight="600" font-family="sans-serif" fill="#000000"><textPath href="#label-path-5" startOffset="50%" text-anchor="middle" dominant-baseline="central">ori</textPath></text><defs><mask id="tail-mask-6"><rect width="900" height="900" fill="white"/><polygon points="313.6470559934105,311.1582387725657 334.8806865920358,305.1809968254204 327.10017277103907,324.85691202830435" fill="black"/></mask></defs><g mask="url(#tail-mask-6)"><path d="M 253.14467004135986 457.54844797789036 A 197 197 0 0 1 330.12354056804446 293.67138945778765 L 344.72777928056695 312.7164993715597 A 173 173 0 0 0 277.1270452647475 456.6288401024113 Z" fill="#ffffff" opacity="1"/></g><path d="M 253.14467004135986 457.54844797789036 A 197 197 0 0 1 330.12354056804446 293.67138945778765 L 344.72777928056695 312.7164993715597 A 173 173 0 0 0 277.1270452647475 456.6288401024113 Z" fill="none" stroke="#000000" stroke-width="1.5" stroke-linejoin="round" opacity="1" pointer-events="none"/><polygon points="313.6470559934105,311.1582387725657 334.8806865920358,305.1809968254204 327.10017277103907,324.85691202830435" fill="none" stroke="#000000" stroke-width="1.5" stroke-linejoin="round" opacity="1" pointer-events="none"/><defs><path id="label-path-6" d="M 265.1358576530537 457.0886440401508 A 185 185 0 0 1 337.4256599243057 303.19394441467364" fill="none"/></defs><text pointer-events="none" font-size="11" font-weight="600" font-family="sans-serif" fill="#000000"><textPath href="#label-path-6" startOffset="50%" text-anchor="middle" dominant-baseline="central">KanR</textPath></text><defs><mask id="tail-mask-7"><rect width="900" height="900" fill="white"/><polygon points="622.7990242624285,539.4966882848336 604.4811430583794,551.7869168379538 605.7499941193728,530.6665936544697" fill="black"/></mask></defs><g mask="url(#tail-mask-7)"><path d="M 604.7368685314259 328.07583702527126 A 197 197 0 0 1 612.5848328287034 561.24375098882 L 592.7775435500796 547.6912127972886 A 173 173 0 0 0 585.8856764260745 342.92954215924834 Z" fill="#ffffff" opacity="1"/></g><path d="M 604.7368685314259 328.07583702527126 A 197 197 0 0 1 612.5848328287034 561.24375098882 L 592.7775435500796 547.6912127972886 A 173 173 0 0 0 585.8856764260745 342.92954215924834 Z" fill="none" stroke="#000000" stroke-width="1.5" stroke-linejoin="round" opacity="1" pointer-events="none"/><polygon points="622.7990242624285,539.4966882848336 604.4811430583794,551.7869168379538 605.7499941193728,530.6665936544697" fill="none" stroke="#000000" stroke-width="1.5" stroke-linejoin="round" opacity="1" pointer-events="none"/><defs><path id="label-path-7" d="M 595.3112724787502 335.5026895922598 A 185 185 0 0 1 602.6811881893915 554.4674818930542" fill="none"/></defs><text pointer-events="none" font-size="11" font-weight="600" font-family="sans-serif" fill="#000000"><textPath href="#label-path-7" startOffset="50%" text-anchor="middle" dominant-baseline="central">lacI</textPath></text><g class="marker-group" style=""><line x1="377.0806133526697" y1="584.5056246072154" x2="365.6422781923041" y2="605.6045461142296" stroke="transparent" stroke-width="10"/><line x1="376.12741875597254" y1="586.2638680661332" x2="371.3614457724869" y2="595.0550853607224" stroke="#000000" stroke-width="3.5" opacity="0.5"/><line x1="375.1742241592754" y1="588.0221115250511" x2="367.54866738569837" y2="602.0880591963938" stroke="#000000" stroke-width="3.5"/><text x="362.78269440221277" y="615.679276490983" text-anchor="middle" dominant-baseline="central" fill="#000000" font-size="12" font-weight="600" font-family="sans-serif" pointer-events="none">SapI</text></g><g class="marker-group" style=""><line x1="533.9806611826357" y1="577.8915499449723" x2="547.1540982308923" y2="597.9529695441837" stroke="transparent" stroke-width="10"/><line x1="535.0784476033236" y1="579.5633349115733" x2="540.567379706764" y2="587.922259744578" stroke="#000000" stroke-width="3.5" opacity="0.5"/><line x1="536.1762340240117" y1="581.2351198781743" x2="544.9585253895161" y2="594.6093996109818" stroke="#000000" stroke-width="3.5"/><text x="550.4474574929563" y="607.7683244439864" text-anchor="middle" dominant-baseline="central" fill="#000000" font-size="12" font-weight="600" font-family="sans-serif" pointer-events="none">BglI</text></g><g class="marker-group" style=""><line x1="304.70004493722985" y1="402.07377483301053" x2="287.60593257690397" y2="396.4353954016" stroke="transparent" stroke-width="10"/><line x1="302.80069911941587" y1="401.44728822952044" x2="293.3039700303459" y2="398.31485521207014" stroke="#000000" stroke-width="3.5" opacity="0.5"/><line x1="300.9013533016019" y1="400.8208016260304" x2="291.4046242125319" y2="397.6883686085801" stroke="#000000" stroke-width="3.5"/><text x="318.04710111739286" y="404.8929645487158" text-anchor="start" dominant-baseline="central" fill="#000000" font-size="12" font-weight="600" font-family="sans-serif" pointer-events="none">XmaI</text></g><g class="marker-group" style=""><line x1="597.40744620337" y1="490.98834961059765" x2="614.7494986978841" y2="495.81050838831504" stroke="transparent" stroke-width="10"/><line x1="599.3343409249826" y1="491.5241450303441" x2="608.968814533046" y2="494.20312212907595" stroke="#000000" stroke-width="3.5" opacity="0.5"/><line x1="601.2612356465953" y1="492.05994045009044" x2="610.8957092546588" y2="494.7389175488223" stroke="#000000" stroke-width="3.5"/><text x="583.936419956113" y="488.577270221739" text-anchor="end" dominant-baseline="central" fill="#000000" font-size="12" font-weight="600" font-family="sans-serif" pointer-events="none">EcoRV</text></g><text x="450" y="438" text-anchor="middle" dominant-baseline="central" fill="#1e293b" font-size="30" font-weight="700" font-family="sans-serif">pET-28a(+)</text><text x="450" y="469" text-anchor="middle" dominant-baseline="central" fill="#64748b" font-size="20" font-family="sans-serif" class="center-len-text" style="">5.4 kb</text></svg>