<?xml version="1.0" encoding="UTF-8"?>
<svg id="linear-svg" class="linear-svg" viewBox="0 0 890 566" width="890" height="566" xmlns="http://www.w3.org/2000/svg"><text x="60" y="28" font-size="15" font-weight="700" fill="#1e293b" font-family="sans-serif">pLinear</text><text x="860" y="28" text-anchor="end" font-size="11" fill="#94a3b8" font-family="sans-serif">1.000 bp · 4 rows</text><text x="56" y="80" text-anchor="end" dominant-baseline="central" font-size="9" fill="#94a3b8" font-family="sans-serif">0</text><rect x="60" y="72" width="800" height="16" rx="8" fill="#e2e8f0" opacity="1" stroke="#cbd5e1" stroke-width="1" class="linear-bb"/><line x1="60" y1="68" x2="60" y2="92" stroke="#94a3b8" stroke-width="1" opacity="0.5"/><line x1="193.33333333333331" y1="68" x2="193.33333333333331" y2="92" stroke="#94a3b8" stroke-width="1" opacity="0.5"/><text x="193.33333333333331" y="64" text-anchor="middle" font-size="9" fill="#64748b" font-family="sans-serif">50</text><line x1="326.66666666666663" y1="68" x2="326.66666666666663" y2="92" stroke="#94a3b8" stroke-width="1" opacity="0.5"/><text x="326.66666666666663" y="64" text-anchor="middle" font-size="9" fill="#64748b" font-family="sans-serif">100</text><line x1="460" y1="68" x2="460" y2="92" stroke="#94a3b8" stroke-width="1" opacity="0.5"/><text x="460" y="64" text-anchor="middle" font-size="9" fill="#64748b" font-family="sans-serif">150</text><line x1="593.3333333333333" y1="68" x2="593.3333333333333" y2="92" stroke="#94a3b8" stroke-width="1" opacity="0.5"/><text x="593.3333333333333" y="64" text-anchor="middle" font-size="9" fill="#64748b" font-family="sans-serif">200</text><line x1="726.6666666666667" y1="68" x2="726.6666666666667" y2="92" stroke="#94a3b8" stroke-width="1" opacity="0.5"/><text x="726.6666666666667" y="64" text-anchor="middle" font-size="9" fill="#64748b" font-family="sans-serif">250</text><line x1="860" y1="68" x2="860" y2="92" stroke="#94a3b8" stroke-width="1" opacity="0.5"/><text x="860" y="64" text-anchor="middle" font-size="9" fill="#64748b" font-family="sans-serif">300</text><line x1="86.66666666666667" y1="70" x2="86.66666666666667" y2="90" stroke="#cbd5e1" stroke-width="0.5"/><line x1="113.33333333333334" y1="70" x2="113.33333333333334" y2="90" stroke="#cbd5e1" stroke-width="0.5"/><line x1="140" y1="70" x2="140" y2="90" stroke="#cbd5e1" stroke-width="0.5"/><line x1="166.66666666666669" y1="70" x2="166.66666666666669" y2="90" stroke="#cbd5e1" stroke-width="0.5"/><line x1="220" y1="70" x2="220" y2="90" stroke="#cbd5e1" stroke-width="0.5"/><line x1="246.66666666666666" y1="70" x2="246.66666666666666" y2="90" stroke="#cbd5e1" stroke-width="0.5"/><line x1="273.33333333333337" y1="70" x2="273.33333333333337" y2="90" stroke="#cbd5e1" stroke-width="0.5"/><line x1="300" y1="70" x2="300" y2="90" stroke="#cbd5e1" stroke-width="0.5"/><line x1="353.3333333333333" y1="70" x2="353.3333333333333" y2="90" stroke="#cbd5e1" stroke-width="0.5"/><line x1="380" y1="70" x2="380" y2="90" stroke="#cbd5e1" stroke-width="0.5"/><line x1="406.6666666666667" y1="70" x2="406.6666666666667" y2="90" stroke="#cbd5e1" stroke-width="0.5"/><line x1="433.3333333333333" y1="70" x2="433.3333333333333" y2="90" stroke="#cbd5e1" stroke-width="0.5"/><line x1="486.6666666666667" y1="70" x2="486.6666666666667" y2="90" stroke="#cbd5e1" stroke-width="0.5"/><line x1="513.3333333333333" y1="70" x2="513.3333333333333" y2="90" stroke="#cbd5e1" stroke-width="0.5"/><line x1="540" y1="70" x2="540" y2="90" stroke="#cbd5e1" stroke-width="0.5"/><line x1="566.6666666666666" y1="70" x2="566.6666666666666" y2="90" stroke="#cbd5e1" stroke-width="0.5"/><line x1="620" y1="70" x2="620" y2="90" stroke="#cbd5e1" stroke-width="0.5"/><line x1="646.6666666666666" y1="70" x2="646.6666666666666" y2="90" stroke="#cbd5e1" stroke-width="0.5"/><line x1="673.3333333333334" y1="70" x2="673.3333333333334" y2="90" stroke="#cbd5e1" stroke-width="0.5"/><line x1="700" y1="70" x2="700" y2="90" stroke="#cbd5e1" stroke-width="0.5"/><line x1="753.3333333333334" y1="70" x2="753.3333333333334" y2="90" stroke="#cbd5e1" stroke-width="0.5"/><line x1="780" y1="70" x2="780" y2="90" stroke="#cbd5e1" stroke-width="0.5"/><line x1="806.6666666666666" y1="70" x2="806.6666666666666" y2="90" stroke="#cbd5e1" stroke-width="0.5"/><line x1="833.3333333333334" y1="70" x2="833.3333333333334" y2="90" stroke="#cbd5e1" stroke-width="0.5"/><g style=""><g><path d="M408,92 L663.6666666666666,92 L670.6666666666666,102 L663.6666666666666,112 L408,112 Q404,112 404,108 L404,96 Q404,92 408,92 Z" fill="#ea580c" opacity="0.85" stroke="#000000" stroke-width="1" stroke-linejoin="round" stroke-dasharray="none"/></g><text x="537.3333333333333" y="102" text-anchor="middle" dominant-baseline="central" font-size="11" fill="#ffffff" font-weight="600" font-family="sans-serif" pointer-events="none">FORWARD</text></g><g style=""><g><path d="M680.3333333333334,92 L860,92 L857,95.33333333333333 L860,98.66666666666667L857,102 L860,105.33333333333333L857,108.66666666666667 L860,112 L680.3333333333334,112 L673.3333333333334,102 Z" fill="#ea580c" opacity="0.85" stroke="#000000" stroke-width="1" stroke-linejoin="round" stroke-dasharray="none"/></g><polyline points="866,95 862,102 866,109" fill="none" stroke="#ea580c" stroke-width="1.5" stroke-linecap="round" stroke-linejoin="round" opacity="0.595" pointer-events="none"/><text x="766.6666666666667" y="102" text-anchor="middle" dominant-baseline="central" font-size="11" fill="#ffffff" font-weight="600" font-family="sans-serif" pointer-events="none">REVERSE</text></g><g class="marker-group" style=""><line x1="260" y1="72" x2="260" y2="124" stroke="#ef4444" stroke-width="2" stroke-dasharray="none"/><text x="260" y="136" text-anchor="middle" font-size="9" fill="#ef4444" font-family="sans-serif" pointer-events="none">BamHI</text></g><g class="marker-group" style=""><line x1="673.3333333333334" y1="72" x2="673.3333333333334" y2="124" stroke="#ef4444" stroke-width="2" stroke-dasharray="none"/><text x="673.3333333333334" y="136" text-anchor="middle" font-size="9" fill="#ef4444" font-family="sans-serif" pointer-events="none">EcoRI</text></g><text x="56" y="204" text-anchor="end" dominant-baseline="central" font-size="9" fill="#94a3b8" font-family="sans-serif">300</text><rect x="60" y="196" width="800" height="16" rx="8" fill="#e2e8f0" opacity="1" stroke="#cbd5e1" stroke-width="1" class="linear-bb"/><line x1="60" y1="192" x2="60" y2="216" stroke="#94a3b8" stroke-width="1" opacity="0.5"/><text x="60" y="188" text-anchor="middle" font-size="9" fill="#64748b" font-family="sans-serif">300</text><line x1="193.33333333333331" y1="192" x2="193.33333333333331" y2="216" stroke="#94a3b8" stroke-width="1" opacity="0.5"/><text x="193.33333333333331" y="188" text-anchor="middle" font-size="9" fill="#64748b" font-family="sans-serif">350</text><line x1="326.66666666666663" y1="192" x2="326.66666666666663" y2="216" stroke="#94a3b8" stroke-width="1" opacity="0.5"/><text x="326.66666666666663" y="188" text-anchor="middle" font-size="9" fill="#64748b" font-family="sans-serif">400</text><line x1="460" y1="192" x2="460" y2="216" stroke="#94a3b8" stroke-width="1" opacity="0.5"/><text x="460" y="188" text-anchor="middle" font-size="9" fill="#64748b" font-family="sans-serif">450</text><line x1="593.3333333333333" y1="192" x2="593.3333333333333" y2="216" stroke="#94a3b8" stroke-width="1" opacity="0.5"/><text x="593.3333333333333" y="188" text-anchor="middle" font-size="9" fill="#64748b" font-family="sans-serif">500</text><line x1="726.6666666666667" y1="192" x2="726.6666666666667" y2="216" stroke="#94a3b8" stroke-width="1" opacity="0.5"/><text x="726.6666666666667" y="188" text-anchor="middle" font-size="9" fill="#64748b" font-family="sans-serif">550</text><line x1="860" y1="192" x2="860" y2="216" stroke="#94a3b8" stroke-width="1" opacity="0.5"/><text x="860" y="188" text-anchor="middle" font-size="9" fill="#64748b" font-family="sans-serif">600</text><line x1="86.66666666666667" y1="194" x2="86.66666666666667" y2="214" stroke="#cbd5e1" stroke-width="0.5"/><line x1="113.33333333333334" y1="194" x2="113.33333333333334" y2="214" stroke="#cbd5e1" stroke-width="0.5"/><line x1="140" y1="194" x2="140" y2="214" stroke="#cbd5e1" stroke-width="0.5"/><line x1="166.66666666666669" y1="194" x2="166.66666666666669" y2="214" stroke="#cbd5e1" stroke-width="0.5"/><line x1="220" y1="194" x2="220" y2="214" stroke="#cbd5e1" stroke-width="0.5"/><line x1="246.66666666666666" y1="194" x2="246.66666666666666" y2="214" stroke="#cbd5e1" stroke-width="0.5"/><line x1="273.33333333333337" y1="194" x2="273.33333333333337" y2="214" stroke="#cbd5e1" stroke-width="0.5"/><line x1="300" y1="194" x2="300" y2="214" stroke="#cbd5e1" stroke-width="0.5"/><line x1="353.3333333333333" y1="194" x2="353.3333333333333" y2="214" stroke="#cbd5e1" stroke-width="0.5"/><line x1="380" y1="194" x2="380" y2="214" stroke="#cbd5e1" stroke-width="0.5"/><line x1="406.6666666666667" y1="194" x2="406.6666666666667" y2="214" stroke="#cbd5e1" stroke-width="0.5"/><line x1="433.3333333333333" y1="194" x2="433.3333333333333" y2="214" stroke="#cbd5e1" stroke-width="0.5"/><line x1="486.6666666666667" y1="194" x2="486.6666666666667" y2="214" stroke="#cbd5e1" stroke-width="0.5"/><line x1="513.3333333333333" y1="194" x2="513.3333333333333" y2="214" stroke="#cbd5e1" stroke-width="0.5"/><line x1="540" y1="194" x2="540" y2="214" stroke="#cbd5e1" stroke-width="0.5"/><line x1="566.6666666666666" y1="194" x2="566.6666666666666" y2="214" stroke="#cbd5e1" stroke-width="0.5"/><line x1="620" y1="194" x2="620" y2="214" stroke="#cbd5e1" stroke-width="0.5"/><line x1="646.6666666666666" y1="194" x2="646.6666666666666" y2="214" stroke="#cbd5e1" stroke-width="0.5"/><line x1="673.3333333333334" y1="194" x2="673.3333333333334" y2="214" stroke="#cbd5e1" stroke-width="0.5"/><line x1="700" y1="194" x2="700" y2="214" stroke="#cbd5e1" stroke-width="0.5"/><line x1="753.3333333333334" y1="194" x2="753.3333333333334" y2="214" stroke="#cbd5e1" stroke-width="0.5"/><line x1="780" y1="194" x2="780" y2="214" stroke="#cbd5e1" stroke-width="0.5"/><line x1="806.6666666666666" y1="194" x2="806.6666666666666" y2="214" stroke="#cbd5e1" stroke-width="0.5"/><line x1="833.3333333333334" y1="194" x2="833.3333333333334" y2="214" stroke="#cbd5e1" stroke-width="0.5"/><g style=""><g><path d="M60,216 L189.33333333333331,216 Q193.33333333333331,216 193.33333333333331,220 L193.33333333333331,232 Q193.33333333333331,236 189.33333333333331,236 L60,236 L63,232.66666666666666 L60,229.33333333333334L63,226 L60,222.66666666666666L63,219.33333333333334 L60,216 Z" fill="#ea580c" opacity="0.85" stroke="#000000" stroke-width="1" stroke-linejoin="round" stroke-dasharray="none"/></g><polyline points="58,219 54,226 58,233" fill="none" stroke="#ea580c" stroke-width="1.5" stroke-linecap="round" stroke-linejoin="round" opacity="0.595" pointer-events="none"/><text x="126.66666666666666" y="226" text-anchor="middle" dominant-baseline="central" font-size="11" fill="#ffffff" font-weight="600" font-family="sans-serif" pointer-events="none">REVERSE</text></g><g style=""><g><path d="M493.3333333333333,216 L860,216 L857,219.33333333333334 L860,222.66666666666666L857,226 L860,229.33333333333334L857,232.66666666666666 L860,236 L493.3333333333333,236 Q489.3333333333333,236 489.3333333333333,232 L489.3333333333333,220 Q489.3333333333333,216 493.3333333333333,216 Z" fill="#4f46e5" opacity="0.85" stroke="#000000" stroke-width="1" stroke-linejoin="round" stroke-dasharray="none"/></g><text x="674.6666666666666" y="226" text-anchor="middle" dominant-baseline="central" font-size="11" fill="#ffffff" font-weight="600" font-family="sans-serif" pointer-events="none">TARGET PROTEINS</text></g><text x="56" y="328" text-anchor="end" dominant-baseline="central" font-size="9" fill="#94a3b8" font-family="sans-serif">600</text><rect x="60" y="320" width="800" height="16" rx="8" fill="#e2e8f0" opacity="1" stroke="#cbd5e1" stroke-width="1" class="linear-bb"/><line x1="60" y1="316" x2="60" y2="340" stroke="#94a3b8" stroke-width="1" opacity="0.5"/><text x="60" y="312" text-anchor="middle" font-size="9" fill="#64748b" font-family="sans-serif">600</text><line x1="193.33333333333331" y1="316" x2="193.33333333333331" y2="340" stroke="#94a3b8" stroke-width="1" opacity="0.5"/><text x="193.33333333333331" y="312" text-anchor="middle" font-size="9" fill="#64748b" font-family="sans-serif">650</text><line x1="326.66666666666663" y1="316" x2="326.66666666666663" y2="340" stroke="#94a3b8" stroke-width="1" opacity="0.5"/><text x="326.66666666666663" y="312" text-anchor="middle" font-size="9" fill="#64748b" font-family="sans-serif">700</text><line x1="460" y1="316" x2="460" y2="340" stroke="#94a3b8" stroke-width="1" opacity="0.5"/><text x="460" y="312" text-anchor="middle" font-size="9" fill="#64748b" font-family="sans-serif">750</text><line x1="593.3333333333333" y1="316" x2="593.3333333333333" y2="340" stroke="#94a3b8" stroke-width="1" opacity="0.5"/><text x="593.3333333333333" y="312" text-anchor="middle" font-size="9" fill="#64748b" font-family="sans-serif">800</text><line x1="726.6666666666667" y1="316" x2="726.6666666666667" y2="340" stroke="#94a3b8" stroke-width="1" opacity="0.5"/><text x="726.6666666666667" y="312" text-anchor="middle" font-size="9" fill="#64748b" font-family="sans-serif">850</text><line x1="860" y1="316" x2="860" y2="340" stroke="#94a3b8" stroke-width="1" opacity="0.5"/><text x="860" y="312" text-anchor="middle" font-size="9" fill="#64748b" font-family="sans-serif">900</text><line x1="86.66666666666667" y1="318" x2="86.66666666666667" y2="338" stroke="#cbd5e1" stroke-width="0.5"/><line x1="113.33333333333334" y1="318" x2="113.33333333333334" y2="338" stroke="#cbd5e1" stroke-width="0.5"/><line x1="140" y1="318" x2="140" y2="338" stroke="#cbd5e1" stroke-width="0.5"/><line x1="166.66666666666669" y1="318" x2="166.66666666666669" y2="338" stroke="#cbd5e1" stroke-width="0.5"/><line x1="220" y1="318" x2="220" y2="338" stroke="#cbd5e1" stroke-width="0.5"/><line x1="246.66666666666666" y1="318" x2="246.66666666666666" y2="338" stroke="#cbd5e1" stroke-width="0.5"/><line x1="273.33333333333337" y1="318" x2="273.33333333333337" y2="338" stroke="#cbd5e1" stroke-width="0.5"/><line x1="300" y1="318" x2="300" y2="338" stroke="#cbd5e1" stroke-width="0.5"/><line x1="353.3333333333333" y1="318" x2="353.3333333333333" y2="338" stroke="#cbd5e1" stroke-width="0.5"/><line x1="380" y1="318" x2="380" y2="338" stroke="#cbd5e1" stroke-width="0.5"/><line x1="406.6666666666667" y1="318" x2="406.6666666666667" y2="338" stroke="#cbd5e1" stroke-width="0.5"/><line x1="433.3333333333333" y1="318" x2="433.3333333333333" y2="338" stroke="#cbd5e1" stroke-width="0.5"/><line x1="486.6666666666667" y1="318" x2="486.6666666666667" y2="338" stroke="#cbd5e1" stroke-width="0.5"/><line x1="513.3333333333333" y1="318" x2="513.3333333333333" y2="338" stroke="#cbd5e1" stroke-width="0.5"/><line x1="540" y1="318" x2="540" y2="338" stroke="#cbd5e1" stroke-width="0.5"/><line x1="566.6666666666666" y1="318" x2="566.6666666666666" y2="338" stroke="#cbd5e1" stroke-width="0.5"/><line x1="620" y1="318" x2="620" y2="338" stroke="#cbd5e1" stroke-width="0.5"/><line x1="646.6666666666666" y1="318" x2="646.6666666666666" y2="338" stroke="#cbd5e1" stroke-width="0.5"/><line x1="673.3333333333334" y1="318" x2="673.3333333333334" y2="338" stroke="#cbd5e1" stroke-width="0.5"/><line x1="700" y1="318" x2="700" y2="338" stroke="#cbd5e1" stroke-width="0.5"/><line x1="753.3333333333334" y1="318" x2="753.3333333333334" y2="338" stroke="#cbd5e1" stroke-width="0.5"/><line x1="780" y1="318" x2="780" y2="338" stroke="#cbd5e1" stroke-width="0.5"/><line x1="806.6666666666666" y1="318" x2="806.6666666666666" y2="338" stroke="#cbd5e1" stroke-width="0.5"/><line x1="833.3333333333334" y1="318" x2="833.3333333333334" y2="338" stroke="#cbd5e1" stroke-width="0.5"/><g style=""><g><path d="M600,340 L860,340 L857,343.3333333333333 L860,346.6666666666667L857,350 L860,353.3333333333333L857,356.6666666666667 L860,360 L600,360 Q596,360 596,356 L596,344 Q596,340 600,340 Z" fill="#16a34a" opacity="0.85" stroke="#000000" stroke-width="1" stroke-linejoin="round" stroke-dasharray="none"/></g><text x="728" y="350" text-anchor="middle" dominant-baseline="central" font-size="11" fill="#1e293b" font-weight="600" font-family="sans-serif" pointer-events="none">Sequencing Region</text></g><g style=""><g><path d="M363,340 L586.3333333333333,340 L593.3333333333333,350 L586.3333333333333,360 L363,360 L356,350 Z" fill="#16a34a" opacity="0.3" stroke="#059669" stroke-width="1.5" stroke-linejoin="round" stroke-dasharray="4,3"/></g><text x="474.66666666666663" y="350" text-anchor="middle" dominant-baseline="central" font-size="11" fill="#16a34a" font-weight="600" font-family="sans-serif" pointer-events="none">Non-Coding Region</text></g><g style=""><g><path d="M60,340 L346.3333333333333,340 L353.3333333333333,350 L346.3333333333333,360 L60,360 L63,356.6666666666667 L60,353.3333333333333L63,350 L60,346.6666666666667L63,343.3333333333333 L60,340 Z" fill="#4f46e5" opacity="0.85" stroke="#000000" stroke-width="1" stroke-linejoin="round" stroke-dasharray="none"/></g><text x="206.66666666666666" y="350" text-anchor="middle" dominant-baseline="central" font-size="11" fill="#ffffff" font-weight="600" font-family="sans-serif" pointer-events="none">TARGET PROTEINS</text></g><g class="marker-group" style=""><line x1="358.6666666666667" y1="320" x2="358.6666666666667" y2="372" stroke="#059669" stroke-width="2" stroke-dasharray="4,3"/><text x="358.6666666666667" y="384" text-anchor="middle" font-size="9" fill="#059669" font-family="sans-serif" pointer-events="none">712</text></g><g class="marker-group" style=""><line x1="593.3333333333333" y1="320" x2="593.3333333333333" y2="372" stroke="#059669" stroke-width="2" stroke-dasharray="4,3"/><text x="593.3333333333333" y="384" text-anchor="middle" font-size="9" fill="#059669" font-family="sans-serif" pointer-events="none">800</text></g><text x="56" y="452" text-anchor="end" dominant-baseline="central" font-size="9" fill="#94a3b8" font-family="sans-serif">900</text><rect x="60" y="444" width="800" height="16" rx="8" fill="#e2e8f0" opacity="1" stroke="#cbd5e1" stroke-width="1" class="linear-bb"/><line x1="60" y1="440" x2="60" y2="464" stroke="#94a3b8" stroke-width="1" opacity="0.5"/><text x="60" y="436" text-anchor="middle" font-size="9" fill="#64748b" font-family="sans-serif">900</text><line x1="460" y1="440" x2="460" y2="464" stroke="#94a3b8" stroke-width="1" opacity="0.5"/><text x="460" y="436" text-anchor="middle" font-size="9" fill="#64748b" font-family="sans-serif">950</text><line x1="860" y1="440" x2="860" y2="464" stroke="#94a3b8" stroke-width="1" opacity="0.5"/><text x="860" y="436" text-anchor="middle" font-size="9" fill="#64748b" font-family="sans-serif">1000</text><line x1="140" y1="442" x2="140" y2="462" stroke="#cbd5e1" stroke-width="0.5"/><line x1="220" y1="442" x2="220" y2="462" stroke="#cbd5e1" stroke-width="0.5"/><line x1="300" y1="442" x2="300" y2="462" stroke="#cbd5e1" stroke-width="0.5"/><line x1="380" y1="442" x2="380" y2="462" stroke="#cbd5e1" stroke-width="0.5"/><line x1="540" y1="442" x2="540" y2="462" stroke="#cbd5e1" stroke-width="0.5"/><line x1="620" y1="442" x2="620" y2="462" stroke="#cbd5e1" stroke-width="0.5"/><line x1="700" y1="442" x2="700" y2="462" stroke="#cbd5e1" stroke-width="0.5"/><line x1="780" y1="442" x2="780" y2="462" stroke="#cbd5e1" stroke-width="0.5"/><g style=""><g><path d="M60,464 L696,464 Q700,464 700,468 L700,480 Q700,484 696,484 L60,484 L63,480.6666666666667 L60,477.3333333333333L63,474 L60,470.6666666666667L63,467.3333333333333 L60,464 Z" fill="#16a34a" opacity="0.85" stroke="#000000" stroke-width="1" stroke-linejoin="round" stroke-dasharray="none"/></g><text x="380" y="474" text-anchor="middle" dominant-baseline="central" font-size="11" fill="#1e293b" font-weight="600" font-family="sans-serif" pointer-events="none">Sequencing Region</text></g></svg>