<?xml version="1.0" encoding="UTF-8"?>
<svg id="plasmid-svg" width="559.9577941894531" height="559.9577941894531" viewBox="170.02110290527344 170.02110290527344 559.9577941894531 559.9577941894531" role="img" aria-label="Plasmid map" class="" xmlns="http://www.w3.org/2000/svg"><circle cx="450" cy="450" r="220" fill="none" stroke="#e2e8f0" stroke-width="28" opacity="1" pointer-events="none"/><circle cx="450" cy="450" r="206" fill="none" stroke="#cbd5e1" stroke-width="1" opacity="1" pointer-events="none"/><circle cx="450" cy="450" r="234" fill="none" stroke="#cbd5e1" stroke-width="1" opacity="1" pointer-events="none"/><line x1="450" y1="214" x2="450" y2="208" stroke="#be185d" stroke-width="1.5"/><line x1="450" y1="246" x2="450" y2="252" stroke="#be185d" stroke-width="1.5"/><text x="450" y="196" text-anchor="middle" dominant-baseline="central" fill="#64748b" font-size="10" font-family="sans-serif">0</text><line x1="667.261907845236" y1="357.84109701473125" x2="672.7855156718098" y2="355.4980740574787" stroke="#be185d" stroke-width="1.5"/><line x1="637.8026661035091" y1="370.33721945341176" x2="632.2790582769353" y2="372.68024241066433" stroke="#be185d" stroke-width="1.5"/><text x="683.8327313249574" y="350.8120281429735" text-anchor="middle" dominant-baseline="central" fill="#64748b" font-size="10" font-family="sans-serif">500</text><line x1="619.6832126059619" y1="614.0231915301001" x2="623.9971925874694" y2="618.1932726706959" stroke="#be185d" stroke-width="1.5"/><line x1="596.6753193712552" y1="591.7827587802561" x2="592.3613393897477" y2="587.6126776396603" stroke="#be185d" stroke-width="1.5"/><text x="632.6251525504845" y="626.5334349518876" text-anchor="middle" dominant-baseline="central" fill="#64748b" font-size="10" font-family="sans-serif">1000</text><line x1="365.26197968681134" y1="670.2622707442235" x2="363.10762323817096" y2="675.8621589834835" stroke="#be185d" stroke-width="1.5"/><line x1="376.7518807462268" y1="640.3962001348373" x2="378.9062371948671" y2="634.7963118955773" stroke="#be185d" stroke-width="1.5"/><text x="358.7989103408902" y="687.0619354620032" text-anchor="middle" dominant-baseline="central" fill="#64748b" font-size="10" font-family="sans-serif">1500</text><line x1="214.13574507872542" y1="458.00332746000066" x2="208.1391962247947" y2="458.20680188694985" stroke="#be185d" stroke-width="1.5"/><line x1="246.11733896635587" y1="456.9181305162718" x2="252.11388782028658" y2="456.7146560893226" stroke="#be185d" stroke-width="1.5"/><text x="196.14609851693328" y="458.61375074084816" text-anchor="middle" dominant-baseline="central" fill="#64748b" font-size="10" font-family="sans-serif">2000</text><line x1="350.52623228791344" y1="235.9883892468405" x2="347.99723819353835" y2="230.54741609209918" stroke="#be185d" stroke-width="1.5"/><line x1="364.0142007912472" y1="265.0069127387943" x2="366.5431948856223" y2="270.44788589353567" stroke="#be185d" stroke-width="1.5"/><text x="342.9392500047882" y="219.66546978261647" text-anchor="middle" dominant-baseline="central" fill="#64748b" font-size="10" font-family="sans-serif">2500</text><line x1="477.54008144480287" y1="215.61240665510124" x2="478.0068624862402" y2="211.6397355814589" stroke="#cbd5e1" stroke-width="1"/><line x1="473.8058331133042" y1="247.39377524424006" x2="473.33905207186683" y2="251.3664463178824" stroke="#cbd5e1" stroke-width="1"/><line x1="504.7038424607614" y1="220.4275939490371" x2="505.63102623128276" y2="216.53653621935973" stroke="#cbd5e1" stroke-width="1"/><line x1="497.28637229659034" y1="251.55605578645577" x2="496.359188526069" y2="255.44711351613313" stroke="#cbd5e1" stroke-width="1"/><line x1="531.1201048356745" y1="228.37976493233032" x2="532.4950218667877" y2="224.62348976169184" stroke="#cbd5e1" stroke-width="1"/><line x1="520.1207685867696" y1="258.4299662974381" x2="518.7458515556564" y2="262.18624146807656" stroke="#cbd5e1" stroke-width="1"/><line x1="556.4279045249984" y1="239.3602574573881" x2="558.2317673135577" y2="235.7900923295472" stroke="#cbd5e1" stroke-width="1"/><line x1="541.997002216524" y1="267.92157848011516" x2="540.1931394279648" y2="271.491743607956" stroke="#cbd5e1" stroke-width="1"/><line x1="580.2814240317409" y1="253.21902898841637" x2="582.4895837610925" y2="249.8837582933048" stroke="#cbd5e1" stroke-width="1"/><line x1="562.6161461969286" y1="279.901194549309" x2="560.4079864675771" y2="283.23646524442063" stroke="#cbd5e1" stroke-width="1"/><line x1="602.354717816917" y1="269.7667068521257" x2="604.937001169746" y2="266.7119052733482" stroke="#cbd5e1" stroke-width="1"/><line x1="581.6964509942842" y1="294.20511948234594" x2="579.1141676414551" y2="297.25992106112346" stroke="#cbd5e1" stroke-width="1"/><line x1="622.3461661703636" y1="288.7771759136524" x2="625.2672876308783" y2="286.04458567490076" stroke="#cbd5e1" stroke-width="1"/><line x1="598.9771944862466" y1="310.63789782366564" x2="596.0560730257318" y2="313.3704880624173" stroke="#cbd5e1" stroke-width="1"/><line x1="639.9825966821638" y1="309.9906683184929" x2="643.2026406937259" y2="307.6176287984674" stroke="#cbd5e1" stroke-width="1"/><line x1="614.2222445896671" y1="328.97498447869725" x2="611.002200578105" y2="331.34802399872285" stroke="#cbd5e1" stroke-width="1"/><line x1="655.0230169969833" y1="333.11731308078726" x2="658.4979833867627" y2="331.1362505906311" stroke="#cbd5e1" stroke-width="1"/><line x1="627.2232858787482" y1="348.96581300203644" x2="623.748319488969" y2="350.9468754921926" stroke="#cbd5e1" stroke-width="1"/><line x1="676.5320313535764" y1="383.82418288511815" x2="680.3715573087218" y2="382.70255886622186" stroke="#cbd5e1" stroke-width="1"/><line x1="645.8158237124135" y1="392.7971750362886" x2="641.9762977572682" y2="393.9187990551849" stroke="#cbd5e1" stroke-width="1"/><line x1="682.7067162606616" y1="410.71152577180004" x2="686.6508978921983" y2="410.0456194289492" stroke="#cbd5e1" stroke-width="1"/><line x1="651.1532632083685" y1="416.0387765146068" x2="647.2090815768319" y2="416.70468285745767" stroke="#cbd5e1" stroke-width="1"/><line x1="685.7015888119379" y1="438.1357245679253" x2="689.6965309951911" y2="437.93463515382234" stroke="#cbd5e1" stroke-width="1"/><line x1="653.7420513459125" y1="439.744439880749" x2="649.7471091626593" y2="439.94552929485195" stroke="#cbd5e1" stroke-width="1"/><line x1="685.4757256817032" y1="465.72204231883563" x2="689.4668396763084" y2="465.98851761237523" stroke="#cbd5e1" stroke-width="1"/><line x1="653.5468137248621" y1="463.59023997051895" x2="649.555699730257" y2="463.32376467697935" stroke="#cbd5e1" stroke-width="1"/><line x1="682.0322131683839" y1="493.09352680138426" x2="685.9649625441193" y2="493.8239255607298" stroke="#cbd5e1" stroke-width="1"/><line x1="650.5702181625014" y1="487.25033672662033" x2="646.637468786766" y2="486.5199379672748" stroke="#cbd5e1" stroke-width="1"/><line x1="675.4181050219242" y1="519.8761613737097" x2="679.2387508697535" y2="521.0605030919082" stroke="#cbd5e1" stroke-width="1"/><line x1="644.8529382392904" y1="510.40142762812195" x2="641.0322923914613" y2="509.21708590992347" stroke="#cbd5e1" stroke-width="1"/><line x1="665.7237794795521" y1="545.7039757118666" x2="669.3801147249683" y2="547.3260769951186" stroke="#cbd5e1" stroke-width="1"/><line x1="636.4730975162231" y1="532.7271654458508" x2="632.816762270807" y2="531.1050641625989" stroke="#cbd5e1" stroke-width="1"/><line x1="653.081704295685" y1="570.2240465978415" x2="656.5237670803576" y2="572.2617423028897" stroke="#cbd5e1" stroke-width="1"/><line x1="625.5452020183039" y1="553.9224809574562" x2="622.1031392336313" y2="551.884785252408" stroke="#cbd5e1" stroke-width="1"/><line x1="637.6646266411765" y1="593.101320425871" x2="640.8453830249252" y2="595.5267665347841" stroke="#cbd5e1" stroke-width="1"/><line x1="612.2185755711865" y1="573.6977515545665" x2="609.0378191874378" y2="571.2723054456534" stroke="#cbd5e1" stroke-width="1"/><line x1="599.3831685600287" y1="632.703773773193" x2="601.9150866712156" y2="635.800447904942" stroke="#cbd5e1" stroke-width="1"/><line x1="579.1278236705332" y1="607.9303807192007" x2="576.5959055593463" y2="604.8337065874516" stroke="#cbd5e1" stroke-width="1"/><line x1="577.0418837077707" y1="648.8878070269297" x2="579.1951359740042" y2="652.2587868070473" stroke="#cbd5e1" stroke-width="1"/><line x1="559.8158655779035" y1="621.9199687859901" x2="557.6626133116702" y2="618.5489890058727" stroke="#cbd5e1" stroke-width="1"/><line x1="552.9646397134195" y1="662.35414516483" x2="554.7098030983927" y2="665.953367964234" stroke="#cbd5e1" stroke-width="1"/><line x1="539.0033326336338" y1="633.5603627695989" x2="537.2581692486606" y2="629.961139970195" stroke="#cbd5e1" stroke-width="1"/><line x1="527.4804391909835" y1="672.9187779052548" x2="528.7936669738815" y2="676.6970622765303" stroke="#cbd5e1" stroke-width="1"/><line x1="516.9746169277993" y1="642.6925029350507" x2="515.6613891449012" y2="638.9142185637752" stroke="#cbd5e1" stroke-width="1"/><line x1="500.93751006014304" y1="680.4373452131247" x2="501.8008576882811" y2="684.3430629286014" stroke="#cbd5e1" stroke-width="1"/><line x1="494.0307290350389" y1="649.1916034893112" x2="493.1673814069009" y2="645.2858857738345" stroke="#cbd5e1" stroke-width="1"/><line x1="473.6985471986648" y1="684.807109902304" x2="474.1002174901676" y2="688.7868914260719" stroke="#cbd5e1" stroke-width="1"/><line x1="470.48518486664244" y1="652.968857712161" x2="470.0835145751397" y2="648.9890761883933" stroke="#cbd5e1" stroke-width="1"/><line x1="446.1357564115988" y1="685.968361484097" x2="446.0702607575581" y2="689.9678252380648" stroke="#cbd5e1" stroke-width="1"/><line x1="446.6597216439244" y1="653.9726514523551" x2="446.72521729796506" y2="649.9731876983874" stroke="#cbd5e1" stroke-width="1"/><line x1="418.6257684387604" y1="683.9052320790232" x2="418.09400180212924" y2="687.8697275379898" stroke="#cbd5e1" stroke-width="1"/><line x1="422.8799015318099" y1="652.1892684072913" x2="423.41166816844105" y2="648.2247729483247" stroke="#cbd5e1" stroke-width="1"/><line x1="391.54449249785466" y1="678.6459132428713" x2="390.553721184259" y2="682.5212677046148" stroke="#cbd5e1" stroke-width="1"/><line x1="399.47066300662016" y1="647.6430775489226" x2="400.46143432021586" y2="643.7677230871791" stroke="#cbd5e1" stroke-width="1"/><line x1="340.13736643418406" y1="658.8688625573071" x2="338.2752878991703" y2="662.4090127701429" stroke="#cbd5e1" stroke-width="1"/><line x1="355.03399471429475" y1="630.5476608546214" x2="356.89607324930853" y2="627.0075106417858" stroke="#cbd5e1" stroke-width="1"/><line x1="316.51396709264554" y1="644.6213734887735" x2="314.2514919586226" y2="647.9200408360409" stroke="#cbd5e1" stroke-width="1"/><line x1="334.6137681648292" y1="618.2320347106347" x2="336.87624329885216" y2="614.9333673633674" stroke="#cbd5e1" stroke-width="1"/><line x1="294.71458273265694" y1="627.7144878283905" x2="292.0826265077867" y2="630.7265977915836" stroke="#cbd5e1" stroke-width="1"/><line x1="315.7702325316187" y1="603.617608122846" x2="318.40218875648895" y2="600.6054981596529" stroke="#cbd5e1" stroke-width="1"/><line x1="275.03709023912603" y1="608.3792290927325" x2="272.0716171923316" y2="611.0636228061687" stroke="#cbd5e1" stroke-width="1"/><line x1="298.76087461348186" y1="586.9040793852434" x2="301.7263476602763" y2="584.2196856718073" stroke="#cbd5e1" stroke-width="1"/><line x1="257.7503719836827" y1="586.8798032128467" x2="254.49190371221974" y2="589.1997998774713" stroke="#cbd5e1" stroke-width="1"/><line x1="283.8181181553868" y1="568.3198298958505" x2="287.07658642684976" y2="565.999833231226" stroke="#cbd5e1" stroke-width="1"/><line x1="243.09064169141104" y1="563.5099883020342" x2="239.58370341499426" y2="565.4338864088484" stroke="#cbd5e1" stroke-width="1"/><line x1="271.14614790274516" y1="548.1188034475211" x2="274.65308617916185" y2="546.194905340707" stroke="#cbd5e1" stroke-width="1"/><line x1="231.2582167071011" y1="538.5891203356398" x2="227.55072885467908" y2="540.0906308498031" stroke="#cbd5e1" stroke-width="1"/><line x1="260.9181195264772" y1="526.5770362223327" x2="264.62560737889925" y2="525.0755257081693" stroke="#cbd5e1" stroke-width="1"/><line x1="222.41478076626734" y1="512.4577295963745" x2="218.55740416908543" y2="513.5163351827537" stroke="#cbd5e1" stroke-width="1"/><line x1="253.2737935437226" y1="503.9888849053407" x2="257.1311701409045" y2="502.9302793189614" stroke="#cbd5e1" stroke-width="1"/><line x1="216.6811746736975" y1="485.47288751080674" x2="212.72661831223476" y2="486.0741228923458" stroke="#cbd5e1" stroke-width="1"/><line x1="248.31762556539954" y1="480.66300445849396" x2="252.2721819268623" y2="480.0617690769549" stroke="#cbd5e1" stroke-width="1"/><line x1="214.8132739103259" y1="430.42440623580967" x2="210.82705821389075" y2="430.09261651099285" stroke="#cbd5e1" stroke-width="1"/><line x1="246.70299948180715" y1="433.07872403434396" x2="250.6892151782423" y2="433.4105137591607" stroke="#cbd5e1" stroke-width="1"/><line x1="218.70450310072695" y1="403.11297499181285" x2="214.78424044141724" y2="402.31827965269105" stroke="#cbd5e1" stroke-width="1"/><line x1="250.06660437520466" y1="409.4705377047874" x2="253.98686703451438" y2="410.2652330439092" stroke="#cbd5e1" stroke-width="1"/><line x1="225.75626109193587" y1="376.44222977460527" x2="221.95551975451107" y2="375.1954879063782" stroke="#cbd5e1" stroke-width="1"/><line x1="256.1621917913344" y1="386.4161647204215" x2="259.96293312875923" y2="387.6629065886485" stroke="#cbd5e1" stroke-width="1"/><line x1="235.8721893965359" y1="350.77661200015893" x2="232.24290447105346" y2="349.09485966117853" stroke="#cbd5e1" stroke-width="1"/><line x1="264.90646880039543" y1="364.23063071200176" x2="268.53575372587784" y2="365.91238305098216" stroke="#cbd5e1" stroke-width="1"/><line x1="248.91405928468916" y1="326.4668285575146" x2="245.5058230013788" y2="324.3730459906928" stroke="#cbd5e1" stroke-width="1"/><line x1="276.17994955117194" y1="343.2170890920889" x2="279.5881858344823" y2="345.3108716589106" stroke="#cbd5e1" stroke-width="1"/><line x1="264.7036606055262" y1="303.8450595874092" x2="261.56304468358593" y2="301.3678572075348" stroke="#cbd5e1" stroke-width="1"/><line x1="289.82858798104803" y1="323.6626786264046" x2="292.9692039029883" y2="326.139881006279" stroke="#cbd5e1" stroke-width="1"/><line x1="283.0252369331897" y1="283.22041941897515" x2="280.19515620324376" y2="280.3936468667544" stroke="#cbd5e1" stroke-width="1"/><line x1="305.6658827727572" y1="305.83459983674123" x2="308.49596350270315" y2="308.66137238896204" stroke="#cbd5e1" stroke-width="1"/><line x1="303.62843376257257" y1="264.87473268837016" x2="301.14755975854837" y2="261.73701629325785" stroke="#cbd5e1" stroke-width="1"/><line x1="323.4754257947661" y1="289.9764638492692" x2="325.9562997987903" y2="293.1141802443815" stroke="#cbd5e1" stroke-width="1"/><line x1="326.2317194692335" y1="249.058683356415" x2="324.13395200261033" y2="245.65289832855763" stroke="#cbd5e1" stroke-width="1"/><line x1="343.0138592022188" y1="276.304963579274" x2="345.11162666884195" y2="279.71074860713134" stroke="#cbd5e1" stroke-width="1"/><line x1="376.18000074275415" y1="225.84244891224338" x2="374.9288143146652" y2="222.04316838533225" stroke="#cbd5e1" stroke-width="1"/><line x1="386.1894921674654" y1="256.2366931275324" x2="387.44067859555435" y2="260.0359736544435" stroke="#cbd5e1" stroke-width="1"/><line x1="402.84247985930665" y1="218.7595011807402" x2="402.043199856922" y2="214.84017069227815" stroke="#cbd5e1" stroke-width="1"/><line x1="409.2367198783837" y1="250.11414508843643" x2="410.0359998807683" y2="254.03347557689847" stroke="#cbd5e1" stroke-width="1"/><line x1="430.1493411734259" y1="214.8363307308058" x2="429.8128893289077" y2="210.8505058279381" stroke="#cbd5e1" stroke-width="1"/><line x1="432.8409559295716" y1="246.72292995374738" x2="433.1774077740898" y2="250.7087548566151" stroke="#cbd5e1" stroke-width="1"/><circle cx="450" cy="450" r="166" fill="none" stroke="#cbd5e1" stroke-width="0.5" opacity="0.4" pointer-events="none"/><polygon points="450,279.14744079449963 452.7782615997639,280.3466584150573 455.51725659329816,281.5907331658598 458.3318053355017,280.52859808125356 461.10559843857914,280.6877419329155 463.9726277431148,279.71975258116004 466.64350872569435,281.14216433416027 469.1370312088565,283.7748222861377 472.3172440910685,280.61128253850944 475.4333118014588,278.6719753998818 478.0434292770166,280.272120244908 480.8187793559717,280.7540549059389 484.04523965293777,278.9737053654384 487.3381425841734,277.2542553929113 490.42900482635093,276.74309342655545 493.54654604651705,276.2871405585881 496.3850674669819,277.0234561451273 498.88787225295897,278.93733296470924 501.3405253148389,280.88648891383644 503.3824021732429,283.98978664651986 505.3366114772244,287.1140075942909 507.59964971928497,289.1495186849455 509.3962658266031,292.3161235833402 509.86405970743255,295.17011155676386 509.86405970743255,295.17011155676386 508.5151482391932,294.6552948229479 505.96370284334307,293.71799859209 503.397252290693,292.8226051628159 500.8164847057058,291.9693546107124 498.22209205157037,291.1584757118911 495.61476994467023,290.3901858816482 492.99521746807255,289.66469111617005 490.3641369840883,288.98218593730144 487.7222339459525,288.34285334038947 485.07021670867607,287.74686474521826 482.40879633911953,287.19437995004756 479.73868642533955,286.68554708876707 477.0606028852595,286.22050259117816 474.3752637747157,285.7993711464142 471.6833890949297,285.42226566950836 468.98570059945973,285.0892872711185 466.2829216006818,284.8005252304171 463.5757767758529,284.55605697115345 460.8649919728086,284.35594804089465 458.1512940153463,284.20025209345044 455.43541050834733,284.08901087448805 452.71806964268904,284.0222542103385 450,284" fill="#219ebc" opacity="0.5" pointer-events="none"/><polygon points="509.86405970743255,295.17011155676386 510.23949213442086,297.68587907184894 513.1759281825667,297.6058693611701 515.6627470368996,298.66073673212986 518.1319601974501,299.7561816428155 520.079549797192,301.9552616708339 523.0149261236857,302.0676184263692 525.4273696538191,303.28299054983535 527.8195893701026,304.53770088039244 530.1909438633704,305.8314130013221 531.7290819933878,305.5134706745363 531.7290819933878,305.5134706745363 530.6915198977856,304.93146924096436 528.3053626952436,303.62968137915954 525.8982100226768,302.36713876865474 523.4707072931202,301.1441799261828 521.0235053759272,299.961132755157 518.5572604222571,298.8183144577531 516.0726336891449,297.7160314498598 513.5702913622047,296.65457927892203 511.05090437700835,295.63424254469714 509.86405970743255,295.17011155676386" fill="#023047" opacity="0.5" pointer-events="none"/><polygon points="531.7290819933878,305.5134706745363 533.7180622635759,305.1265320345858 536.0789845282814,306.5167463009228 538.4168270360301,307.94543173000534 541.3689040372841,308.42371437647296 546.2909769229474,306.02710975397713 549.3054332601874,306.6559986450068 551.6392225044348,308.30123413329295 553.2444883020155,310.9290792515419 555.5077824183302,312.6382396307646 558.4746130773749,313.4630814864797 560.6957145018453,315.25753976426057 562.1255410986349,317.98481755530065 564.2721145588823,319.838449621977 563.2258603930699,325.21207664930876 565.2539478275323,327.08275635169247 568.8884365528077,327.29655000327807 569.2168804968021,330.92247617396407 571.1506631781493,332.8904867765921 573.0519625782796,334.88989713512274 572.5334807644108,338.0109554833251 572.5334807644108,338.0109554833251 571.2265406113574,336.59750509180634 569.3534461550411,334.62775511018384 567.4483502927565,332.6889390828385 565.5117638245522,330.7815768509712 563.5442059938332,328.90617982229656 561.5462043481394,327.06325083392227 559.5182945976984,325.25328401752716 557.4610204717887,323.4767646668732 555.3749335729542,321.73416910768685 553.260593229106,320.02596456994524 551.118566343554,318.3526090626014 548.9494272430077,316.71455125078086 546.753757523585,315.11223033548475 544.5321458948735,313.54607593582966 542.2851880220836,312.01650797385696 540.0134863663376,310.52393656194204 537.7176500231349,309.06876189283355 535.3982945590403,307.6513741323529 533.0560418466367,306.2721533147813 531.7290819933878,305.5134706745363" fill="#219ebc" opacity="0.5" pointer-events="none"/><polygon points="572.5334807644108,338.0109554833251 572.3036750502442,339.2887538499461 574.6511799389726,340.3729807947791 574.6511799389726,340.3729807947791 573.0671314419706,338.59766089239986 572.5334807644108,338.0109554833251" fill="#023047" opacity="0.5" pointer-events="none"/><polygon points="574.6511799389726,340.3729807947791 574.9850638869832,340.53104534017206 578.5559076353812,341.07112463642954 579.4123503268163,343.9364376782336 580.209673009221,346.800391066727 585.6173795489663,346.0840563179035 586.3552726499679,349.0187410010803 588.9472252762257,350.58035619100815 591.5243418521497,352.1999603523094 593.1067382759363,354.53037890618464 594.6507644894283,356.8863950628161 594.1569457270966,360.50838001751833 594.593391448248,363.48484279952646 594.9712869614798,366.45144150719216 596.3198687627848,368.8363894671062 595.6543721892442,370.3708353543935 595.6543721892442,370.3708353543935 595.1628097255146,369.47820995162846 593.8248921543917,367.1121215328948 592.4484118193902,364.76825726213605 591.0337377865692,362.4472455833099 589.5812493625973,360.1497088130682 588.0913359930515,357.8762629738993 586.5643971579984,355.6275176289588 585.0008422648837,353.4040757186309 583.4010905387613,351.2065333988669 581.7655709098891,349.0354798813416 580.0947218987229,346.8914972754723 578.3889914983391,344.77516043234175 576.6488370543173,342.68703679056756 574.8747251421155,340.62768622415854 574.6511799389726,340.3729807947791" fill="#219ebc" opacity="0.5" pointer-events="none"/><polygon points="595.6543721892442,370.3708353543935 594.5152187161079,372.9043489802191 592.6174184946071,376.89100287442955 594.8509545142977,378.7165439602935 594.9347854228821,381.5999890848274 596.0353311097975,383.98230853457227 597.0967213632747,386.38232884687045 600.2932948282495,387.9008821775863 600.195429839421,390.8014950862821 602.2460445870971,392.85529935123645 605.3774378382253,394.56516649504573 607.1307782118461,396.4657255719325 607.1307782118461,396.4657255719325 606.3473506229304,394.21912556090166 605.4130392477365,391.66658563240526 604.4370580597141,389.12968623490997 603.419668741883,386.6091075695341 602.3611440797356,384.1055254614315 601.2617678880971,381.6196111785884 600.1218349350278,379.1520312518399 598.9416508627892,376.70344729615863 597.7215321058945,374.27451583326 596.4618058062647,371.86588811557385 595.6543721892442,370.3708353543935" fill="#023047" opacity="0.5" pointer-events="none"/><polygon points="607.1307782118461,396.4657255719325 607.3786780026595,396.73960252416487 607.3480497975103,397.10773946104945 607.3480497975103,397.10773946104945 607.2397416749119,396.78662162569486 607.1307782118461,396.4657255719325" fill="#219ebc" opacity="0.5" pointer-events="none"/><polygon points="607.3480497975103,397.10773946104945 607.109249855958,399.6824825275358 607.9120822321324,402.26172143860003 605.277896003926,405.81962945762183 607.1171643499589,408.06467394569165 611.0375374169247,409.714623711667 611.0375374169247,409.714623711667 610.3854871621583,407.19234288404505 609.663056766688,404.5719436480342 608.8978170308734,401.96372471950934 608.0899731331006,399.3683854219961 607.3480497975103,397.10773946104945" fill="#023047" opacity="0.5" pointer-events="none"/><polygon points="611.0375374169247,409.714623711667 611.2072307503151,409.7887206997418 611.844035075246,412.4337047380064 611.7774440614785,412.79706203893045 611.7774440614785,412.79706203893045 611.7011566613046,412.46686884369734 611.0649145170677,409.82421983819506 611.0375374169247,409.714623711667" fill="#219ebc" opacity="0.5" pointer-events="none"/><polygon points="611.7774440614785,412.79706203893045 611.2872394565813,415.3359646987114 612.4588386065323,415.89537042252624 612.4588386065323,415.89537042252624 612.2940430037064,415.11958134552987 611.7774440614785,412.79706203893045" fill="#023047" opacity="0.5" pointer-events="none"/><polygon points="612.4588386065323,415.89537042252624 615.2955009331446,417.2965040524757 615.8088253831386,420.0074225683617 618.5996067165705,422.3455319688345 621.3576546515662,424.7670938082132 617.0815648561975,428.1855102939993 618.5852614174464,430.79102602257944 620.0481180025015,433.4399712899905 620.2964735731824,436.2265445291539 621.6732059228673,438.9411818018918 620.6561491549145,441.810021814156 621.9432567328585,444.56828241968367 625.5381480195826,447.33073188236034 625.5583214760302,450.2053361818785 624.3551341724416,453.05924617573305 623.1058741350005,455.87381498911105 621.8115069667784,458.6483042024808 622.8207241292675,461.5387466392392 624.9534538454884,464.5621217534848 627.0328831066204,467.6583806054261 624.382828125463,470.28289075536276 624.0273398015795,473.1355009458262 623.62519074246,475.9819079759965 618.5344551849964,478.04878611572013 615.7382121047275,480.3803608315849 615.2185475894048,483.09007114493005 612.3553353404724,485.29112233454003 612.1396838375211,485.59105119364546 612.1396838375211,485.59105119364546 612.2120055427596,485.25996678665086 612.7676028032068,482.59919443326004 613.2795583230627,479.9296814855345 613.7477348352693,477.2521437013374 614.1720068109279,474.56729899017506 614.5522604929567,471.87586722070944 614.8883939265918,469.17857002774423 615.180316986723,466.4761306187382 615.4279514020589,463.7692735798966 615.6312307761133,461.05872468189284 615.7901006050072,458.3452106852729 615.9045182920829,455.6294591455938 615.9744531593252,452.9121982183494 615.9998864555864,450.1941564637351 615.9808113616145,447.4760626513042 615.9172329918812,444.7586455645677 615.8091683932106,442.04263380559104 615.6566465402091,439.32875559963884 615.4597083274957,436.61773859992115 615.2184065587383,433.9103096924926 614.9328059324945,431.20719480135784 614.6029830248659,428.5091186938344 614.2290262689653,425.81680478622604 613.8110359312059,423.1309749498579 613.3491240844178,420.4523493175266 612.8434145777985,417.78164609041585 612.4588386065323,415.89537042252624" fill="#219ebc" opacity="0.5" pointer-events="none"/><polygon points="612.1396838375211,485.59105119364546 610.6103373896724,487.67609956549626 608.8310749216166,490.0134663078842 608.1546047516177,492.60878832574275 606.3049263388743,494.8680833873279 606.6746424896482,497.7644663685182 605.871547209623,500.323440037488 607.1694443587901,503.4206491906376 607.1694443587901,503.4206491906376 607.9711014587643,501.00128531620345 608.7850142493476,498.40784285458795 609.5563531229946,495.8014211361421 610.2849112660001,493.1827190025183 610.9704933351575,490.55243858803107 611.6129155101344,487.9112851313983 612.1396838375211,485.59105119364546" fill="#023047" opacity="0.5" pointer-events="none"/><polygon points="607.1694443587901,503.4206491906376 607.2536589389842,503.6283971366882 606.354470539913,506.1960654435185 606.1014891548921,506.4652555437865 606.1014891548921,506.4652555437865 606.216438398333,506.14645468896344 607.1148329799971,503.5810531593736 607.1694443587901,503.4206491906376" fill="#219ebc" opacity="0.5" pointer-events="none"/><polygon points="606.1014891548921,506.4652555437865 604.312891031266,508.3326719469132 604.9939511389086,509.4379938284393 604.9939511389086,509.4379938284393 605.276158594037,508.69680206177725 606.1014891548921,506.4652555437865" fill="#023047" opacity="0.5" pointer-events="none"/><polygon points="604.9939511389086,509.4379938284393 606.6175991613306,512.1534303869842 605.5789078762807,514.7095410272141 603.4197880267126,516.7787714122716 604.4475537482667,520.2561612218477 605.4020036301348,523.7848518295833 604.1730234209534,526.3194990878226 603.9483755312501,529.3728104193 599.5179878934873,530.2143774191196 596.1296078420348,531.5056647198644 595.7933856123082,534.4772749775332 597.4150386757834,538.6723940355241 592.9491334142518,539.2057539178015 590.4815780796987,540.8953348073012 588.5344370135472,541.4560537161948 588.5344370135472,541.4560537161948 589.3706867095689,540.1765584068454 590.8285456331278,537.8824256313973 592.2486451822747,535.5647295549243 593.6306045956353,533.2240916050891 594.9740533380838,530.8611393607983 596.2786312000911,528.4765063839346 597.5439883943062,526.0708320494842 598.7697856493417,523.6447613741054 599.9556943007403,521.1989448431851 601.1013963790977,518.7340382364284 602.2065846953169,516.2507024520291 603.2709629229734,513.7496033294681 604.2942456777663,511.2314114709853 604.9939511389086,509.4379938284393" fill="#219ebc" opacity="0.5" pointer-events="none"/><polygon points="588.5344370135472,541.4560537161948 587.0201383074452,541.8730137369083 587.2094003741217,543.4322238254765 587.2094003741217,543.4322238254765 587.87545929713,542.4465127714695 588.5344370135472,541.4560537161948" fill="#023047" opacity="0.5" pointer-events="none"/><polygon points="587.2094003741217,543.4322238254765 587.4300247900258,545.4464454849249 584.8935986894403,546.9970889344672 586.1186808970953,551.299949453535 583.5095871170372,552.797429071778 582.7287841948325,555.7026248236796 580.9802247371986,557.8617438031063 581.8839481787924,562.2798716393216 581.7941927654907,565.9786926798256 579.877499154292,568.1211311148671 577.0687114247331,569.4261879836736 575.9401657380531,572.3104290577892 572.2597225006905,572.689468238407 570.2344254363717,574.6748904252757 568.9795883363213,577.4869772124721 566.8761770147295,579.4180476049437 562.4191141839813,578.6566739549799 560.297429856153,580.480166899786 558.1461722487608,582.2686751086983 555.2362493387695,583.098861278233 553.0427919656078,584.8041470889767 549.4235863801053,584.5807792398736 546.5231710417006,585.2331160670467 544.9636372110064,587.7640855852867 543.9986723514421,591.2594232064546 541.6731011695911,592.779611886305 540.5616142320094,596.2620289735744 538.7574624246585,598.7355311501065 537.4826768685549,602.2088947806295 536.1176297464315,605.6798444035223 533.0044609140498,606.0304093433763 529.3675954322284,605.2734896714825 526.2962902845687,605.4960496327215 523.2391160103427,605.6599466073324 520.6805349612544,606.8382895512601 516.7057762164306,604.7335151002924 513.2672600940818,603.62933323209 510.7432649748145,604.6446700968003 508.6151135970315,606.7204649288054 506.8291930013638,609.8762579974517 504.20377437326744,610.7853410362584 500.8487739159345,609.4096542269007 498.57092113607655,611.3474105646632 495.60188835238137,610.9891407772301 493.5638637286801,613.9883069779153 490.5894957700183,613.5378063600726 487.3769739910913,611.887862560533 487.013694824703,611.8208466033464 487.013694824703,611.8208466033464 487.34397702114245,611.7449454550107 489.98736837885417,611.1117946338312 492.6200382027492,610.435446032341 495.2412806134539,609.716080995167 497.850392795547,608.9538924006325 500.4466751860011,608.1490846090426 503.02943166175055,607.3018734078896 505.59796972633944,606.4124859539961 508.1516006955949,605.4811607126088 510.68963988227904,604.5081473934604 513.2114067796705,603.4937068838167 515.7162252440226,602.4381111785268 518.2034236758537,601.3416433070951 520.6723352000188,600.2045972577944 523.1222978445131,599.0272778988408 525.5526547179635,597.8100008966518 527.9627541857544,596.5530926312088 530.3519500447476,595.2568901085466 532.719601696543,593.9217408703955 535.0650743192388,592.548002900996 537.3877390376412,591.1360445311159 539.6869730918801,589.686244339292 541.9621600043864,588.1989910503244 544.2126897451828,586.6746834310507 546.4379588954475,585.1137301834273 548.6373708093039,583.516549834947 550.8103357737962,581.8835706264222 552.956271167004,580.2152303971634 555.0746016142574,578.5119764675849 557.1647591424078,576.7742655192675 559.2261833321143,575.0025634725118 561.2583214681058,573.1973453614145 563.2606286873761,571.3590952064999 565.2325681252744,569.4883058849442 567.1736110594509,567.5854789984229 569.0832370516197,565.6511247386196 570.9609340871,563.6857617504331 572.8061987120994,561.6899169929155 574.6185361687012,559.6641255979827 576.39746052752,557.6089307269336 578.1424948179915,555.524883424816 579.8531711562584,553.4125424726781 581.5290308706213,551.272474237747 583.169624624519,549.1052525215728 584.7745125370059,546.9114584061784 586.3432643006943,544.691680098259 587.2094003741217,543.4322238254765" fill="#219ebc" opacity="0.5" pointer-events="none"/><polygon points="487.013694824703,611.8208466033464 484.47536725330036,611.3276727893998 483.9145915895429,612.4986168473889 483.9145915895429,612.4986168473889 484.69057288367765,612.3347287335715 487.013694824703,611.8208466033464" fill="#023047" opacity="0.5" pointer-events="none"/><polygon points="483.9145915895429,612.4986168473889 482.51014110877867,615.333638443652 479.59056895468547,614.6858642945164 476.70098249782603,613.9871207223284 474.01229199235564,614.4023359396775 473.87931022160063,614.2734870371374 473.87931022160063,614.2734870371374 473.9910935701007,614.2571990182186 476.67741045806446,613.8423503592767 479.35657451827376,613.383571795187 482.02786740518013,612.8809863350422 483.9145915895429,612.4986168473889" fill="#219ebc" opacity="0.5" pointer-events="none"/><polygon points="473.87931022160063,614.2734870371374 470.86432814055144,611.2732300039177 468.08903653588544,610.4241779965579 465.7978222370154,614.2120512248149 463.01343964838617,613.2759573092321 460.4124843647446,614.6412740604479 457.60522497449745,612.4393285437379 454.9444378903422,612.5420789783424 452.28232508858673,612.6012481404837 449.6140962655264,614.9697549043499 446.9129475017645,614.9413200558511 444.25389859582157,613.6929142186102 441.6348934924483,612.4019701166536 438.8173631262872,614.5907579040945 437.5609432970509,615.5332893056283 437.5609432970509,615.5332893056283 438.74755773741333,615.6181830087721 441.4608840610904,615.7802265017812 444.176499918288,615.8978205004463 446.893677189892,615.9709334751101 449.61168733813685,615.9995458225011 452.32980160194376,615.9836498709906 455.04729119231826,615.9232498826489 457.763427487755,615.8183620521031 460.4774822295982,615.6690145021948 463.18872771730463,615.4752472764395 465.89643700355657,615.2371123282901 468.59988408917354,614.9546735072072 471.2983441177688,614.6280065415393 473.87931022160063,614.2734870371374" fill="#023047" opacity="0.5" pointer-events="none"/><polygon points="437.5609432970509,615.5332893056283 435.9259546032384,616.7301919739306 433.31595396910296,615.3068686933112 432.9935394811624,615.1265584351022 432.9935394811624,615.1265584351022 433.330682902634,615.1609332363663 436.0372484524946,615.4117334690095 437.5609432970509,615.5332893056283" fill="#219ebc" opacity="0.5" pointer-events="none"/><polygon points="432.9935394811624,615.1265584351022 430.74875882845174,613.843091609773 429.4475724337241,614.7227905334687 429.4475724337241,614.7227905334687 430.62858678035064,614.8658495561576 432.9935394811624,615.1265584351022" fill="#023047" opacity="0.5" pointer-events="none"/><polygon points="429.4475724337241,614.7227905334687 427.75578316371644,615.8379645522527 426.92212426706766,614.3879912026889 426.92212426706766,614.3879912026889 427.9316845798061,614.5265615471096 429.4475724337241,614.7227905334687" fill="#219ebc" opacity="0.5" pointer-events="none"/><polygon points="426.92212426706766,614.3879912026889 425.56976905070445,611.9615746481012 422.7234810455262,613.7436762556839 422.7234810455262,613.7436762556839 425.240699402553,614.1431601801467 426.92212426706766,614.3879912026889" fill="#023047" opacity="0.5" pointer-events="none"/><polygon points="422.7234810455262,613.7436762556839 422.53210368052436,613.8604067520012 422.47279933487306,613.7017202827809 422.47279933487306,613.7017202827809 422.5563527636531,613.7157482539995 422.7234810455262,613.7436762556839" fill="#219ebc" opacity="0.5" pointer-events="none"/><polygon points="422.47279933487306,613.7017202827809 420.706630467565,608.7609165698665 418.5757904104509,605.9534037032836 416.0264356435231,605.4179590648507 412.9461434161568,607.1309703429972 410.9557344916307,604.2222111301717 407.82100407150944,605.8334445205273 405.6009802532553,603.9914951037906 402.0523169377805,606.6186691799331 399.494284333249,605.8125814294779 396.9497934735339,604.9647167397394 394.02031235192464,605.1819690741082 391.4868809333137,604.2445585814338 389.4043744781389,602.1727899932927 387.826983145857,598.9887448900834 386.8081638300263,594.7162625233223 385.4238281661218,591.5215417220026 382.6093819978322,591.5073753940494 380.3013869599569,590.3849565513372 379.63312898051095,586.0897821668353 377.971628826315,583.8833060769357 376.9376477017994,580.6324009593983 374.2174652553819,580.435815811953 373.3070614056828,577.1626113467951 371.5001928290517,575.4662515345219 369.4563430805117,574.1640822864478 366.4990363476173,574.2196464851146 363.1318169193052,574.7667610715429 359.724652625443,575.236394937928 356.98266578352514,574.6844187352681 353.5159134276266,575.0073031288439 350.0140326884488,575.2495902569985 346.47874156100625,575.4102226928101 344.4391636373653,573.6983618770847 343.206130014024,571.0710512966925 341.23804003876825,569.3061867384057 337.6856862480539,569.2219894698868 335.7486127302417,567.3669815308551 332.39707979250795,567.1561059384882 332.39707979250795,567.1561059384882 334.2096725586277,568.9478880477488 336.1728380156555,570.827882521336 338.1665231546715,572.6754802586294 340.1901934228033,574.4901858761511 342.2433062274748,576.2715128095574 344.3253110818885,578.0189834440985 346.43564975262314,579.732129242677 348.57375640930934,581.4104908714745 350.73905777634144,583.0536183231088 352.930973286586,584.6610710372917 355.1489152370456,586.2324180189534 357.39228894643463,587.7672379538014 359.66049291462804,589.265119321286 361.9529189839364,590.7256605049367 364.2689525021681,592.1484699000467 366.6079724874305,593.5331660186691 368.9693517946306,594.8793775919046 371.35245728362605,596.1867436694454 373.75664998898577,597.4549137163559 376.18128529130985,598.6835477070581 378.6257130900683,599.8723162165006 381.0892779779069,601.0209005084853 383.5713194163775,602.1289926211275 386.0711719130436,603.1962954494278 388.58816519991376,604.2225228249328 391.1216244131564,605.2073995924633 393.6708702740459,606.1506616838899 396.23521927109346,607.0520561889357 398.81398384331135,607.9113414229871 401.4064725645648,608.7282869918956 404.01199032895835,609.5026738537514 406.6298385372106,610.2342943776131 409.25931528396416,610.9229523991794 411.89971554598293,611.5684632733844 414.5503313711846,612.1706539239057 417.21045206846,612.7293628895696 419.8793643982239,613.2444403676432 422.47279933487306,613.7017202827809" fill="#023047" opacity="0.5" pointer-events="none"/><polygon points="332.39707979250795,567.1561059384882 332.17353412946187,567.1394133910856 332.19793686431683,566.9558631321086 332.19793686431683,566.9558631321086 332.2775531534319,567.0360009076563 332.39707979250795,567.1561059384882" fill="#219ebc" opacity="0.5" pointer-events="none"/><polygon points="332.19793686431683,566.9558631321086 332.8146659522743,562.7473830684157 330.9842600960189,560.813485459853 327.4376801840118,560.424846462275 325.09271797742156,559.3351311232216 325.09271797742156,559.3351311232216 326.6726092537239,561.1141516266732 328.50851621820453,563.1186075254541 330.37699784575034,565.0927337220052 332.19793686431683,566.9558631321086" fill="#023047" opacity="0.5" pointer-events="none"/><polygon points="325.09271797742156,559.3351311232216 324.7592046927059,559.1762859779777 321.18963408542845,558.6278551241952 317.60492573466826,557.9913945522804 317.7018541942954,554.3519136973608 316.9464576571897,551.4583192228406 312.4618099675674,551.3599687730391 308.9038431406186,550.4590457951984 307.27785097702383,548.135281834987 304.70992422647413,546.4358111967591 308.10398656802806,540.8715722767168 308.6370443985099,537.2996736119893 304.1936583752283,536.7783716743656 302.7923038409218,534.3793176079928 300.4002931264452,532.5259031481357 299.06907668825784,530.0653069396104 299.87468928932583,526.5147852375767 295.4716066620082,525.5973726008575 295.3196090741968,522.557381775459 290.9328507265599,521.4612749779556 293.02677221577494,517.4537081713881 296.29677337190094,513.0875293006466 296.38960705314094,512.9273166336494 296.38960705314094,512.9273166336494 296.43246495440553,513.0318346553557 297.4851302587777,515.5378860493531 298.57868831002907,518.0263652276724 299.71284590007656,520.4966049717706 300.8872989351665,522.9479429535172 302.10173251740866,525.3797219127789 303.35582102920824,527.7912898336465 304.6492282205708,530.1820001192555 305.98160729925917,532.5512117651534 307.3526010237763,534.8982895311681 308.76184179914935,537.2226041117295 310.20895177549164,539.5235323046023 311.6935429493112,541.8004571779791 313.2152172675451,544.0527682358957 314.77356673428534,546.2798615819177 316.3681735201729,548.4811400810601 317.99861007442667,550.6560135198923 319.6644392394803,552.8038987647885 321.3652143681935,554.9242199182781 323.1004794436092,557.0164084734586 324.86976920122135,559.0799034664241 325.09271797742156,559.3351311232216" fill="#219ebc" opacity="0.5" pointer-events="none"/><polygon points="296.38960705314094,512.9273166336494 298.5709738320852,509.2758377291298 295.4158911079021,507.610087944123 296.71127695713386,504.2857466794059 294.72769267324463,502.14305729580894 293.8947228026077,499.59365158821925 296.48439680445347,496.0175302931406 293.48687104598133,494.13632709770803 290.5103967343306,492.169128578297 293.26777764813323,488.7058213362394 292.65502363532397,486.13431252241327 288.632114574842,484.286652042838 289.24697142138893,481.4141950323837 286.84205448500006,480.58569625371166 286.84205448500006,480.58569625371166 287.08166472971504,481.8373370864938 287.6248076112811,484.50067965600863 288.21148701917457,487.1547717992357 288.84154565114306,489.79890189298436 289.51481457396585,492.4323609851188 290.2311132687487,495.05444298464465 290.9902496793252,497.66444485102767 291.79202026375117,500.26166678269504 292.6362100488793,502.8454124046692 293.52259268799827,505.41498895528093 294.45093052152146,507.96970747191546 295.4209746407088,510.50888297573846 296.38960705314094,512.9273166336494" fill="#023047" opacity="0.5" pointer-events="none"/><polygon points="286.84205448500006,480.58569625371166 284.12146864733734,479.60462991176644 283.65896292372986,476.88458034487155 283.24105706068883,474.15732240320716 285.20170867673323,471.12442676335695 281.3702655693942,468.8145612310611 281.084804327567,466.0509102357985 283.19035333385045,463.09875752154346 281.824027279215,460.4385571487013 284.026146848223,457.57616651751346 281.5724106959723,454.9263005554586 282.69070075317455,452.1526855390573 284.0011104444855,450.60717899840387 284.0011104444855,450.60717899840387 284.01373868609346,452.1356626680116 284.07096021041593,454.85322104448477 284.1726711293498,457.56947816069345 284.31884417185665,460.28370572558737 284.5094401455795,462.9951759922852 284.74440794735096,465.7031619532007 285.02368457689545,468.40693753497067 285.3471951537206,471.105777793131 285.7148529371948,473.7989591064919 286.1265593498044,476.4857593711566 286.582204003584,479.1654581941341 286.84205448500006,480.58569625371166" fill="#219ebc" opacity="0.5" pointer-events="none"/><polygon points="284.0011104444855,450.60717899840387 285.03080929503864,449.42114505818745 286.2386414693043,446.74342220892504 285.13822113938664,444.01979717670116 285.25824208188465,441.32116638351295 284.29671646927613,440.0792224530261 284.29671646927613,440.0792224530261 284.2298743896208,441.2669904890068 284.1091042402354,443.98246694874695 284.0328132581691,446.6995568475983 284.0010218987901,449.4175316712224 284.0011104444855,450.60717899840387" fill="#023047" opacity="0.5" pointer-events="none"/><polygon points="284.29671646927613,440.0792224530261 283.0750930654526,438.4626209914671 284.4585682152506,435.8312812222182 284.63395549830165,435.50616248668706 284.63395549830165,435.50616248668706 284.6047107481155,435.84378958599945 284.3950913250685,438.5538555501167 284.29671646927613,440.0792224530261" fill="#219ebc" opacity="0.5" pointer-events="none"/><polygon points="284.63395549830165,435.50616248668706 285.8831433253791,433.2421269208915 284.98376227689585,431.95446626691273 284.98376227689585,431.95446626691273 284.85867645496984,433.13751922771525 284.63395549830165,435.50616248668706" fill="#023047" opacity="0.5" pointer-events="none"/><polygon points="284.98376227689585,431.95446626691273 283.8429944541737,430.2798281564764 284.1881661010841,427.56183143453615 285.7409005292039,425.0266848377747 285.9371913284716,424.71374264922827 285.9371913284716,424.71374264922827 285.8859109992957,425.0487316661276 285.4993624718936,427.7392665698871 285.1569203515803,430.4357700886351 284.98376227689585,431.95446626691273" fill="#219ebc" opacity="0.5" pointer-events="none"/><polygon points="285.9371913284716,424.71374264922827 287.3318856753608,422.5363233167937 288.9600720676266,420.09131466840523 288.3183651208374,417.2247364969443 291.1747731640582,415.08693331767057 291.76772904771775,412.4910232885955 293.54326083164653,410.1952402660974 293.08074759581547,407.33006761705644 294.9304991479888,405.09365262932204 296.8111117780986,402.9062844520588 297.6027569367269,400.4042963001204 296.2100462301099,397.1509222019134 297.09600977219566,394.6398638272207 298.02297039331904,392.14364877921196 302.26815486927376,390.97248938640234 303.2544713767289,388.5614542486234 299.9696817908283,384.27868333042113 301.06591023646513,381.83091057498484 301.14049279157115,378.8943316706938 300.5548181036796,377.735640818065 300.5548181036796,377.735640818065 300.21126689381447,378.45046866370177 299.0598019594715,380.9126884624533 297.94880756628197,383.39343215955023 296.87858159741324,385.89203461051056 295.84941100508036,388.40782588250875 294.8615717336064,390.94013143400116 293.9153286454365,393.48827229558543 293.01093545012117,396.05156525204853 292.1486346362919,398.62932302555157 291.32865740664374,401.2208544599051 290.5512236159444,403.8254647058852 289.8165417120871,406.4424554075365 289.1248086801993,409.0711248894191 288.47620998982825,411.71076834474303 287.8709195452109,414.36067802434354 287.3090996386469,417.02014342644463 286.7909009069842,419.68845148716196 286.3164622912295,422.36488677169 285.9371913284716,424.71374264922827" fill="#023047" opacity="0.5" pointer-events="none"/><polygon points="300.5548181036796,377.735640818065 299.16532733306286,374.8932573107656 300.4153397655733,372.4335723493723 301.7054592883521,369.9946847325108 299.95700185494195,365.850812247437 303.3880729898377,364.5897084256187 305.81294808209043,362.80931623647524 308.957574148579,362.4612422412426 308.957574148579,362.4612422412426 307.95189984199624,364.1027518397607 306.5644689123832,366.44015066065924 305.2154963499852,368.79995380038974 303.905343845394,371.1815285414171 302.63436268065107,373.5842363287383 301.4028936350596,376.00743294109475 300.5548181036796,377.735640818065" fill="#219ebc" opacity="0.5" pointer-events="none"/><polygon points="308.957574148579,362.4612422412426 310.24978011814824,362.33561157535144 313.676417077672,361.3419172107116 315.1463726023528,359.12165229082507 318.58191688977286,358.2724635106445 319.14791282864235,355.4438716340008 321.65585938519604,354.0185690426527 323.2446570433164,351.92994060006833 323.03029104727983,348.3975004583318 323.8045273425337,345.5821350175793 324.6371602679096,342.76508325550026 326.4098218513044,340.72677903499294 328.21562080602814,338.71777348007254 331.76484071857436,338.3540327000162 331.10876070700823,334.15150747905017 331.10876070700823,334.15150747905017 329.30533433757336,336.0315934978687 327.45540601550886,338.023116291012 325.6383347195935,340.0446626639519 323.85460764846374,342.0956905935774 322.1047030604018,344.175650152094 320.3890901451036,346.2839836544716 318.70822889787877,348.42012580797217 317.06256999631427,350.5835038637191 315.4525546794385,352.7735377702628 313.8786146294143,354.98964032910675 312.341171855795,357.231217352149 310.84063858237414,359.49766782099704 309.37741713665866,361.78838404811586 308.957574148579,362.4612422412426" fill="#023047" opacity="0.5" pointer-events="none"/><polygon points="331.10876070700823,334.15150747905017 331.08264159667806,333.96819358673844 332.17000070709105,331.2013176162003 334.1919672100672,331.0693498658741 334.1919672100672,331.0693498658741 333.1017693499705,332.14074635018045 331.1876236774255,334.07062825762 331.10876070700823,334.15150747905017" fill="#219ebc" opacity="0.5" pointer-events="none"/><polygon points="334.1919672100672,331.0693498658741 335.7603762821784,330.98539027621814 337.72442634447907,329.13079583608874 342.07796695629054,329.9334979589212 342.5143330801649,326.4070420552747 344.55244317462086,324.66365009987396 346.61882618605614,322.9538637046387 350.89545221688945,324.0518276135864 350.83418734841473,319.6369321936651 354.3757244862445,319.92645133949304 355.15589592888676,316.459804666624 357.35518648103016,314.9247381095869 359.5793172400026,313.4258883391721 361.1943823750882,310.9721925902896 364.09970751550696,310.5384368443873 367.5957668979953,311.17394878648184 369.2960794434785,308.8219134870435 373.31971171649127,310.6117707131435 376.7125310353208,311.4547742490645 379.5238863431874,311.322149771771 383.3513083355517,313.35894541009327 385.0992167030981,311.22026922227195 387.3802847087012,310.17619442982254 389.6781425012371,309.169609617849 391.54672977438946,307.1119033628855 393.89420344391675,306.173950365544 395.4376171095138,303.06879480880013 398.6336471039921,304.4139747406765 401.770786040892,305.8238271387704 404.1379799067057,305.0534546359009 405.8444947914302,302.0672980020254 408.27265161288915,301.36413165986386 409.8138116835326,297.28760670513566 412.31969862428343,296.65007438708335 413.7877646160725,291.46593768797766 414.9418599226866,287.74425491120667 414.9418599226866,287.74425491120667 413.03448425058417,288.1681408208517 410.3896190379817,288.79510640168587 407.7553742801928,289.465294724806 405.1324562788671,290.17852609729744 402.5215682986898,290.9346092854136 399.9234103788213,291.7333415658495 397.3386791451996,292.57450878009695 394.7680676237585,293.4578853918656 392.21226505461277,294.38323454755374 389.67195670725556,295.35030813975493 387.1478236968231,296.35884687378075 384.64054280147104,297.4085803371839 382.15078628091567,298.499227072262 379.67922169618436,299.6304946515231 377.2265117306281,300.8020797560918 374.7933140122409,302.013668257036 372.3802809373337,303.2649352995926 369.98805949561216,304.5555453902683 367.61729109670506,305.8851524867928 365.26861139818567,307.2534000909012 362.9426501351388,308.659921343919 360.64003095131386,310.10433912512565 358.36137123191105,311.58626615286914 356.10728193804727,313.1053050884051 353.8783674429425,314.66104864243255 351.6752253698741,316.2530796842972 349.49844643193956,317.8809713538346 347.3486142736731,319.5442871758203 345.2263053145569,321.2425811769996 343.13208859447064,322.9753980056622 341.0665256211176,324.7422730537338 339.03017021947227,326.5427325813474 337.0235683832867,328.376293843864 335.0472581286973,330.24246522130784 334.1919672100672,331.0693498658741" fill="#023047" opacity="0.5" pointer-events="none"/><polygon points="414.9418599226866,287.74425491120667 415.4157778361983,286.289990389046 417.8767017262463,284.5907651189197 420.24510635003185,286.6884991683712 420.24510635003185,286.6884991683712 418.35323678582813,287.0445386675668 415.68926076876204,287.584566086206 414.9418599226866,287.74425491120667" fill="#219ebc" opacity="0.5" pointer-events="none"/><polygon points="420.24510635003185,286.6884991683712 421.2054423337139,287.56218911935406 424.6144477094789,291.7589583778032 427.37618146521703,292.52902518282144 430.2540612238436,294.51388940656216 433.0607955458694,296.5501504950013 435.6855620924279,297.46468535227535 437.8221723973943,292.5588830319947 440.33022324114665,291.2062958036396 442.67023611619015,285.1927079395418 445.0021078371165,284.0752547872133 445.0021078371165,284.0752547872133 442.6244815214518,284.1639311634149 439.91008484658397,284.30692949855484 437.1983935102,284.494353959509 434.490134579159,284.7261542934654 431.78603420001457,285.0022683494195 429.08681740431587,285.3226220948379 426.3932079142114,285.687129635508 423.7059279484022,286.0956932385687 421.025698028498,286.5482033587143 420.24510635003185,286.6884991683712" fill="#023047" opacity="0.5" pointer-events="none"/><polygon points="445.0021078371165,284.0752547872133 445.33673894369207,283.9187782274304 448.029243883743,281.51190725674655 449.99999999999994,279.14744079449963 449.99999999999994,284 448.0584791875178,284.01135431321006 445.34085574257944,284.065397295234 445.0021078371165,284.0752547872133" fill="#219ebc" opacity="0.5" pointer-events="none"/><polyline points="450,279.14744079449963 452.7782615997639,280.3466584150573 455.51725659329816,281.5907331658598 458.3318053355017,280.52859808125356 461.10559843857914,280.6877419329155 463.9726277431148,279.71975258116004 466.64350872569435,281.14216433416027 469.1370312088565,283.7748222861377 472.3172440910685,280.61128253850944 475.4333118014588,278.6719753998818 478.0434292770166,280.272120244908 480.8187793559717,280.7540549059389 484.04523965293777,278.9737053654384 487.3381425841734,277.2542553929113 490.42900482635093,276.74309342655545 493.54654604651705,276.2871405585881 496.3850674669819,277.0234561451273 498.88787225295897,278.93733296470924 501.3405253148389,280.88648891383644 503.3824021732429,283.98978664651986 505.3366114772244,287.1140075942909 507.59964971928497,289.1495186849455 509.3962658266031,292.3161235833402 510.23949213442086,297.68587907184894 513.1759281825667,297.6058693611701 515.6627470368996,298.66073673212986 518.1319601974501,299.7561816428155 520.079549797192,301.9552616708339 523.0149261236857,302.0676184263692 525.4273696538191,303.28299054983535 527.8195893701026,304.53770088039244 530.1909438633704,305.8314130013221 533.7180622635759,305.1265320345858 536.0789845282814,306.5167463009228 538.4168270360301,307.94543173000534 541.3689040372841,308.42371437647296 546.2909769229474,306.02710975397713 549.3054332601874,306.6559986450068 551.6392225044348,308.30123413329295 553.2444883020155,310.9290792515419 555.5077824183302,312.6382396307646 558.4746130773749,313.4630814864797 560.6957145018453,315.25753976426057 562.1255410986349,317.98481755530065 564.2721145588823,319.838449621977 563.2258603930699,325.21207664930876 565.2539478275323,327.08275635169247 568.8884365528077,327.29655000327807 569.2168804968021,330.92247617396407 571.1506631781493,332.8904867765921 573.0519625782796,334.88989713512274 572.3036750502442,339.2887538499461 574.9850638869832,340.53104534017206 578.5559076353812,341.07112463642954 579.4123503268163,343.9364376782336 580.209673009221,346.800391066727 585.6173795489663,346.0840563179035 586.3552726499679,349.0187410010803 588.9472252762257,350.58035619100815 591.5243418521497,352.1999603523094 593.1067382759363,354.53037890618464 594.6507644894283,356.8863950628161 594.1569457270966,360.50838001751833 594.593391448248,363.48484279952646 594.9712869614798,366.45144150719216 596.3198687627848,368.8363894671062 594.5152187161079,372.9043489802191 592.6174184946071,376.89100287442955 594.8509545142977,378.7165439602935 594.9347854228821,381.5999890848274 596.0353311097975,383.98230853457227 597.0967213632747,386.38232884687045 600.2932948282495,387.9008821775863 600.195429839421,390.8014950862821 602.2460445870971,392.85529935123645 605.3774378382253,394.56516649504573 607.3786780026595,396.73960252416487 607.109249855958,399.6824825275358 607.9120822321324,402.26172143860003 605.277896003926,405.81962945762183 607.1171643499589,408.06467394569165 611.2072307503151,409.7887206997418 611.844035075246,412.4337047380064 611.2872394565813,415.3359646987114 615.2955009331446,417.2965040524757 615.8088253831386,420.0074225683617 618.5996067165705,422.3455319688345 621.3576546515662,424.7670938082132 617.0815648561975,428.1855102939993 618.5852614174464,430.79102602257944 620.0481180025015,433.4399712899905 620.2964735731824,436.2265445291539 621.6732059228673,438.9411818018918 620.6561491549145,441.810021814156 621.9432567328585,444.56828241968367 625.5381480195826,447.33073188236034 625.5583214760302,450.2053361818785 624.3551341724416,453.05924617573305 623.1058741350005,455.87381498911105 621.8115069667784,458.6483042024808 622.8207241292675,461.5387466392392 624.9534538454884,464.5621217534848 627.0328831066204,467.6583806054261 624.382828125463,470.28289075536276 624.0273398015795,473.1355009458262 623.62519074246,475.9819079759965 618.5344551849964,478.04878611572013 615.7382121047275,480.3803608315849 615.2185475894048,483.09007114493005 612.3553353404724,485.29112233454003 610.6103373896724,487.67609956549626 608.8310749216166,490.0134663078842 608.1546047516177,492.60878832574275 606.3049263388743,494.8680833873279 606.6746424896482,497.7644663685182 605.871547209623,500.323440037488 607.2536589389842,503.6283971366882 606.354470539913,506.1960654435185 604.312891031266,508.3326719469132 606.6175991613306,512.1534303869842 605.5789078762807,514.7095410272141 603.4197880267126,516.7787714122716 604.4475537482667,520.2561612218477 605.4020036301348,523.7848518295833 604.1730234209534,526.3194990878226 603.9483755312501,529.3728104193 599.5179878934873,530.2143774191196 596.1296078420348,531.5056647198644 595.7933856123082,534.4772749775332 597.4150386757834,538.6723940355241 592.9491334142518,539.2057539178015 590.4815780796987,540.8953348073012 587.0201383074452,541.8730137369083 587.4300247900258,545.4464454849249 584.8935986894403,546.9970889344672 586.1186808970953,551.299949453535 583.5095871170372,552.797429071778 582.7287841948325,555.7026248236796 580.9802247371986,557.8617438031063 581.8839481787924,562.2798716393216 581.7941927654907,565.9786926798256 579.877499154292,568.1211311148671 577.0687114247331,569.4261879836736 575.9401657380531,572.3104290577892 572.2597225006905,572.689468238407 570.2344254363717,574.6748904252757 568.9795883363213,577.4869772124721 566.8761770147295,579.4180476049437 562.4191141839813,578.6566739549799 560.297429856153,580.480166899786 558.1461722487608,582.2686751086983 555.2362493387695,583.098861278233 553.0427919656078,584.8041470889767 549.4235863801053,584.5807792398736 546.5231710417006,585.2331160670467 544.9636372110064,587.7640855852867 543.9986723514421,591.2594232064546 541.6731011695911,592.779611886305 540.5616142320094,596.2620289735744 538.7574624246585,598.7355311501065 537.4826768685549,602.2088947806295 536.1176297464315,605.6798444035223 533.0044609140498,606.0304093433763 529.3675954322284,605.2734896714825 526.2962902845687,605.4960496327215 523.2391160103427,605.6599466073324 520.6805349612544,606.8382895512601 516.7057762164306,604.7335151002924 513.2672600940818,603.62933323209 510.7432649748145,604.6446700968003 508.6151135970315,606.7204649288054 506.8291930013638,609.8762579974517 504.20377437326744,610.7853410362584 500.8487739159345,609.4096542269007 498.57092113607655,611.3474105646632 495.60188835238137,610.9891407772301 493.5638637286801,613.9883069779153 490.5894957700183,613.5378063600726 487.3769739910913,611.887862560533 484.47536725330036,611.3276727893998 482.51014110877867,615.333638443652 479.59056895468547,614.6858642945164 476.70098249782603,613.9871207223284 474.01229199235564,614.4023359396775 470.86432814055144,611.2732300039177 468.08903653588544,610.4241779965579 465.7978222370154,614.2120512248149 463.01343964838617,613.2759573092321 460.4124843647446,614.6412740604479 457.60522497449745,612.4393285437379 454.9444378903422,612.5420789783424 452.28232508858673,612.6012481404837 449.6140962655264,614.9697549043499 446.9129475017645,614.9413200558511 444.25389859582157,613.6929142186102 441.6348934924483,612.4019701166536 438.8173631262872,614.5907579040945 435.9259546032384,616.7301919739306 433.31595396910296,615.3068686933112 430.74875882845174,613.843091609773 427.75578316371644,615.8379645522527 425.56976905070445,611.9615746481012 422.53210368052436,613.8604067520012 420.706630467565,608.7609165698665 418.5757904104509,605.9534037032836 416.0264356435231,605.4179590648507 412.9461434161568,607.1309703429972 410.9557344916307,604.2222111301717 407.82100407150944,605.8334445205273 405.6009802532553,603.9914951037906 402.0523169377805,606.6186691799331 399.494284333249,605.8125814294779 396.9497934735339,604.9647167397394 394.02031235192464,605.1819690741082 391.4868809333137,604.2445585814338 389.4043744781389,602.1727899932927 387.826983145857,598.9887448900834 386.8081638300263,594.7162625233223 385.4238281661218,591.5215417220026 382.6093819978322,591.5073753940494 380.3013869599569,590.3849565513372 379.63312898051095,586.0897821668353 377.971628826315,583.8833060769357 376.9376477017994,580.6324009593983 374.2174652553819,580.435815811953 373.3070614056828,577.1626113467951 371.5001928290517,575.4662515345219 369.4563430805117,574.1640822864478 366.4990363476173,574.2196464851146 363.1318169193052,574.7667610715429 359.724652625443,575.236394937928 356.98266578352514,574.6844187352681 353.5159134276266,575.0073031288439 350.0140326884488,575.2495902569985 346.47874156100625,575.4102226928101 344.4391636373653,573.6983618770847 343.206130014024,571.0710512966925 341.23804003876825,569.3061867384057 337.6856862480539,569.2219894698868 335.7486127302417,567.3669815308551 332.17353412946187,567.1394133910856 332.8146659522743,562.7473830684157 330.9842600960189,560.813485459853 327.4376801840118,560.424846462275 324.7592046927059,559.1762859779777 321.18963408542845,558.6278551241952 317.60492573466826,557.9913945522804 317.7018541942954,554.3519136973608 316.9464576571897,551.4583192228406 312.4618099675674,551.3599687730391 308.9038431406186,550.4590457951984 307.27785097702383,548.135281834987 304.70992422647413,546.4358111967591 308.10398656802806,540.8715722767168 308.6370443985099,537.2996736119893 304.1936583752283,536.7783716743656 302.7923038409218,534.3793176079928 300.4002931264452,532.5259031481357 299.06907668825784,530.0653069396104 299.87468928932583,526.5147852375767 295.4716066620082,525.5973726008575 295.3196090741968,522.557381775459 290.9328507265599,521.4612749779556 293.02677221577494,517.4537081713881 296.29677337190094,513.0875293006466 298.5709738320852,509.2758377291298 295.4158911079021,507.610087944123 296.71127695713386,504.2857466794059 294.72769267324463,502.14305729580894 293.8947228026077,499.59365158821925 296.48439680445347,496.0175302931406 293.48687104598133,494.13632709770803 290.5103967343306,492.169128578297 293.26777764813323,488.7058213362394 292.65502363532397,486.13431252241327 288.632114574842,484.286652042838 289.24697142138893,481.4141950323837 284.12146864733734,479.60462991176644 283.65896292372986,476.88458034487155 283.24105706068883,474.15732240320716 285.20170867673323,471.12442676335695 281.3702655693942,468.8145612310611 281.084804327567,466.0509102357985 283.19035333385045,463.09875752154346 281.824027279215,460.4385571487013 284.026146848223,457.57616651751346 281.5724106959723,454.9263005554586 282.69070075317455,452.1526855390573 285.03080929503864,449.42114505818745 286.2386414693043,446.74342220892504 285.13822113938664,444.01979717670116 285.25824208188465,441.32116638351295 283.0750930654526,438.4626209914671 284.4585682152506,435.8312812222182 285.8831433253791,433.2421269208915 283.8429944541737,430.2798281564764 284.1881661010841,427.56183143453615 285.7409005292039,425.0266848377747 287.3318856753608,422.5363233167937 288.9600720676266,420.09131466840523 288.3183651208374,417.2247364969443 291.1747731640582,415.08693331767057 291.76772904771775,412.4910232885955 293.54326083164653,410.1952402660974 293.08074759581547,407.33006761705644 294.9304991479888,405.09365262932204 296.8111117780986,402.9062844520588 297.6027569367269,400.4042963001204 296.2100462301099,397.1509222019134 297.09600977219566,394.6398638272207 298.02297039331904,392.14364877921196 302.26815486927376,390.97248938640234 303.2544713767289,388.5614542486234 299.9696817908283,384.27868333042113 301.06591023646513,381.83091057498484 301.14049279157115,378.8943316706938 299.16532733306286,374.8932573107656 300.4153397655733,372.4335723493723 301.7054592883521,369.9946847325108 299.95700185494195,365.850812247437 303.3880729898377,364.5897084256187 305.81294808209043,362.80931623647524 310.24978011814824,362.33561157535144 313.676417077672,361.3419172107116 315.1463726023528,359.12165229082507 318.58191688977286,358.2724635106445 319.14791282864235,355.4438716340008 321.65585938519604,354.0185690426527 323.2446570433164,351.92994060006833 323.03029104727983,348.3975004583318 323.8045273425337,345.5821350175793 324.6371602679096,342.76508325550026 326.4098218513044,340.72677903499294 328.21562080602814,338.71777348007254 331.76484071857436,338.3540327000162 331.08264159667806,333.96819358673844 332.17000070709105,331.2013176162003 335.7603762821784,330.98539027621814 337.72442634447907,329.13079583608874 342.07796695629054,329.9334979589212 342.5143330801649,326.4070420552747 344.55244317462086,324.66365009987396 346.61882618605614,322.9538637046387 350.89545221688945,324.0518276135864 350.83418734841473,319.6369321936651 354.3757244862445,319.92645133949304 355.15589592888676,316.459804666624 357.35518648103016,314.9247381095869 359.5793172400026,313.4258883391721 361.1943823750882,310.9721925902896 364.09970751550696,310.5384368443873 367.5957668979953,311.17394878648184 369.2960794434785,308.8219134870435 373.31971171649127,310.6117707131435 376.7125310353208,311.4547742490645 379.5238863431874,311.322149771771 383.3513083355517,313.35894541009327 385.0992167030981,311.22026922227195 387.3802847087012,310.17619442982254 389.6781425012371,309.169609617849 391.54672977438946,307.1119033628855 393.89420344391675,306.173950365544 395.4376171095138,303.06879480880013 398.6336471039921,304.4139747406765 401.770786040892,305.8238271387704 404.1379799067057,305.0534546359009 405.8444947914302,302.0672980020254 408.27265161288915,301.36413165986386 409.8138116835326,297.28760670513566 412.31969862428343,296.65007438708335 413.7877646160725,291.46593768797766 415.4157778361983,286.289990389046 417.8767017262463,284.5907651189197 421.2054423337139,287.56218911935406 424.6144477094789,291.7589583778032 427.37618146521703,292.52902518282144 430.2540612238436,294.51388940656216 433.0607955458694,296.5501504950013 435.6855620924279,297.46468535227535 437.8221723973943,292.5588830319947 440.33022324114665,291.2062958036396 442.67023611619015,285.1927079395418 445.33673894369207,283.9187782274304 448.029243883743,281.51190725674655 449.99999999999994,279.14744079449963" fill="none" stroke="#64748b" stroke-width="0.8" opacity="0.6" pointer-events="none"/><g><path d="M 523.1989465227297 242.5345469048821 L 560.2061700619554 237.70011756886123 L 556.8889274848398 244.09041503334365 A 232 232 0 0 1 656.454189449202 344.1667932127489 L 635.0968595061811 355.1150559838439 A 208 208 0 0 0 545.8314522277874 265.3914065816184 L 542.5142096506717 271.7817040461009 Z" fill="#ffb703" opacity="0.85" stroke="#000000" stroke-width="1" stroke-linejoin="round"/></g><defs><path id="label-path-0" d="M 523.1989465227297 242.5345469048821 A 220 220 0 0 1 645.7755244776915 349.6409245982964" fill="none"/></defs><text pointer-events="none" font-size="11" font-weight="600" font-family="sans-serif" fill="#1e293b"><textPath href="#label-path-0" startOffset="50%" text-anchor="middle" dominant-baseline="central">lacZα</textPath></text><g><path d="M 647.6192423750806 546.6779966853842 L 648.1457222581448 583.9959430385792 L 642.1814697487023 579.9626203384213 A 232 232 0 0 1 389.9102984783566 674.0830822954732 L 396.12647449783697 650.9020737821484 A 208 208 0 0 0 622.3006280505607 566.518211337895 L 616.3363755411182 562.4848886377371 Z" fill="#8ecae6" opacity="0.85" stroke="#000000" stroke-width="1" stroke-linejoin="round"/></g><defs><path id="label-path-1" d="M 393.0183864880968 662.4925780388107 A 220 220 0 0 0 647.6192423750806 546.6779966853842" fill="none"/></defs><text pointer-events="none" font-size="11" font-weight="600" font-family="sans-serif" fill="#1e293b"><textPath href="#label-path-1" startOffset="50%" text-anchor="middle" dominant-baseline="central">ori</textPath></text><g><path d="M 315.1726476930725 623.8435649367087 L 278.5266859301176 616.7739265049889 L 283.6880900325555 611.7539755399558 A 232 232 0 0 1 345.37595826356085 242.93042258522902 L 356.1991349949166 264.3514133522743 A 208 208 0 0 0 300.8927703740153 595.0208056565122 L 306.0541744764532 590.000854691479 Z" fill="#219ebc" opacity="0.85" stroke="#000000" stroke-width="1" stroke-linejoin="round"/></g><defs><path id="label-path-2" d="M 315.1726476930725 623.8435649367087 A 220 220 0 0 1 350.7875466292387 253.64091796875167" fill="none"/></defs><text pointer-events="none" font-size="11" font-weight="600" font-family="sans-serif" fill="#1e293b"><textPath href="#label-path-2" startOffset="50%" text-anchor="middle" dominant-baseline="central">AmpR</textPath></text><g><path d="M 350.7875466292387 253.64091796875167 L 355.4337687044894 230.28685087468253 L 358.2802438939864 236.90029014601316 A 232 232 0 0 1 398.86656800723574 223.70512128498942 L 404.1562333857976 247.11493632447326 A 208 208 0 0 0 367.76849452564295 258.94508771711526 L 370.6149697151399 265.55852698844586 Z" fill="#fb8500" opacity="0.85" stroke="#000000" stroke-width="1" stroke-linejoin="round"/></g><g><path d="M 635.1399967290156 310.18876436001256 A 232 232 0 0 1 652.0834067111948 336.0425661398177 L 631.1782267065885 347.83126619431937 A 208 208 0 0 0 615.9875832742898 324.65199563311467 Z" fill="#023047" opacity="0.85" stroke="#000000" stroke-width="1" stroke-linejoin="round"/></g><g><path d="M 660.9525659361603 353.44423929692266 A 232 232 0 0 1 664.6245068107105 361.90731542143067 L 642.4219716233956 371.02035175714474 A 208 208 0 0 0 639.1298867013851 363.4327662662065 Z" fill="#023047" opacity="0.85" stroke="#000000" stroke-width="1" stroke-linejoin="round"/></g><g><path d="M 654.8637685484582 369.80750448998515 L 674.2867930141738 366.861113313822 L 667.5356855321418 369.36362160872363 A 232 232 0 0 1 671.5974591740951 381.30818034448873 L 648.6735840871197 388.4142306536795 A 208 208 0 0 0 645.0319939253685 377.70531592506256 L 638.2808864433366 380.20782421996427 Z" fill="#fb8500" opacity="0.85" stroke="#000000" stroke-width="1" stroke-linejoin="round"/></g><text x="450" y="438" text-anchor="middle" dominant-baseline="central" fill="#1e293b" font-size="30" font-weight="700" font-family="sans-serif">pUC19</text><text x="450" y="467.25" text-anchor="middle" dominant-baseline="central" fill="#64748b" font-size="15" font-family="sans-serif" class="center-len-text" style="">2686 bp</text></svg>