<?xml version="1.0" encoding="UTF-8"?>
<svg id="plasmid-svg" width="443.93597412109375" height="443.93597412109375" viewBox="228.03201293945312 228.03201293945312 443.93597412109375 443.93597412109375" role="img" aria-label="Plasmid map" xmlns="http://www.w3.org/2000/svg"><circle cx="450" cy="450" r="170" fill="none" stroke="#f97316" stroke-width="7" opacity="1" pointer-events="none"/><circle cx="450" cy="450" r="155" fill="none" stroke="#e2e8f0" stroke-width="12" opacity="0" pointer-events="none"/><circle cx="450" cy="450" r="149" fill="none" stroke="#cbd5e1" stroke-width="1" opacity="0" pointer-events="none"/><circle cx="450" cy="450" r="161" fill="none" stroke="#cbd5e1" stroke-width="1" opacity="0" pointer-events="none"/><line x1="450" y1="274.5" x2="450" y2="270.5" stroke="#ffffff" stroke-width="1.5"/><text x="450" y="258.5" text-anchor="middle" dominant-baseline="central" fill="#000000" font-size="14" font-family="sans-serif">0</text><line x1="611.5655289272836" y1="381.4665785003616" x2="615.2479341449994" y2="379.9045631955265" stroke="#ffffff" stroke-width="1.5"/><text x="626.295149798147" y="375.2185172810213" text-anchor="middle" dominant-baseline="central" fill="#000000" font-size="14" font-family="sans-serif">500</text><line x1="576.1839144590946" y1="571.9748733624263" x2="579.0599011134329" y2="574.7549274561567" stroke="#ffffff" stroke-width="1.5"/><text x="587.6878610764479" y="583.0950897373482" text-anchor="middle" dominant-baseline="central" fill="#000000" font-size="14" font-family="sans-serif">1000</text><line x1="386.98507387726863" y1="613.7967309983527" x2="385.5488362448417" y2="617.529989824526" stroke="#ffffff" stroke-width="1.5"/><text x="381.2401233475609" y="628.7297663030458" text-anchor="middle" dominant-baseline="central" fill="#000000" font-size="14" font-family="sans-serif">1500</text><line x1="274.6009460225267" y1="455.95162698826323" x2="270.6032467865729" y2="456.0872766062293" stroke="#ffffff" stroke-width="1.5"/><text x="258.6101490787115" y="456.49422546012767" text-anchor="middle" dominant-baseline="central" fill="#000000" font-size="14" font-family="sans-serif">2000</text><line x1="376.02692273952886" y1="290.85153522381574" x2="374.3409266766121" y2="287.2242197873215" stroke="#ffffff" stroke-width="1.5"/><text x="369.282938487862" y="276.34227347783883" text-anchor="middle" dominant-baseline="central" fill="#000000" font-size="14" font-family="sans-serif">2500</text><g><path d="M 501.91376691314827 303.95219685018435 L 524.6964108173463 306.9251726857368 L 523.5856835189471 309.05267941159946 A 159 159 0 0 1 591.4923108725134 377.467759141496 L 584.3732008915065 381.11718006519436 A 151 151 0 0 0 519.8832591909498 316.14436849780833 L 518.7725318925505 318.271875223671 Z" fill="#000000" opacity="1"/></g><text x="544.8771878537419" y="364.1149372261167" text-anchor="end" fill="#000000" font-size="24" font-weight="600" font-family="sans-serif" pointer-events="none">lacZα</text><g><path d="M 577.1085347201611 354.478167933746 A 159 159 0 0 1 588.8606896431044 372.5486677206811 L 581.8739882774136 376.4455900995148 A 151 151 0 0 0 570.7131367468196 359.28429784902926 Z" fill="#2563eb" opacity="1"/></g><text x="573.9877231157359" y="394.2868092453575" text-anchor="end" fill="#2563eb" font-size="19" font-weight="600" font-family="sans-serif" pointer-events="none">Polylinker</text><g><path d="M 577.1085347201611 354.478167933746 A 159 159 0 0 1 588.8606896431044 372.5486677206811 L 581.8739882774136 376.4455900995148 A 151 151 0 0 0 570.7131367468196 359.28429784902926 Z" fill="#2563eb" opacity="1"/></g><text x="594.3593614176259" y="352.1526678209972" text-anchor="start" fill="#2563eb" font-size="13" font-weight="600" font-family="sans-serif" pointer-events="none">396-454</text><g><path d="M 589.0720233959779 518.4395522234663 L 583.4867960330824 540.7261554614888 L 581.5018622630738 539.3770676479351 A 159 159 0 0 1 408.81783387094265 603.5741814007769 L 410.8898925441028 595.847178563002 A 151 151 0 0 0 574.8854163630449 534.8801082694226 L 572.9004825930363 533.5310204558689 Z" fill="#000000" opacity="1"/></g><text x="509.4713584385844" y="577.185558542672" text-anchor="end" fill="#000000" font-size="24" font-weight="600" font-family="sans-serif" pointer-events="none">ori</text><g><path d="M 354.7217508145799 572.2581499621232 L 334.0356060579777 562.2596068835958 L 335.7599836630635 560.5903190488955 A 159 159 0 0 1 378.296454154768 308.085936168325 L 381.9041797318866 315.2262664240068 A 151 151 0 0 0 341.5079090133496 555.0260262665611 L 343.23228661843547 553.3567384318608 Z" fill="#000000" opacity="1"/></g><text x="306.6780087683235" y="445.2826782874634" text-anchor="start" fill="#000000" font-size="24" font-weight="600" font-family="sans-serif" pointer-events="none">amp</text><text x="450" y="437.2" text-anchor="middle" dominant-baseline="central" fill="#000000" font-size="32" font-weight="700" font-family="sans-serif">pUC19</text><text x="450" y="469.1" text-anchor="middle" dominant-baseline="central" fill="#000000" font-size="18" font-family="sans-serif" class="center-len-text" style="">2686 bp</text></svg>